<svg width="1258" height="507" viewBox="0 0 1258 507" fill="none" xmlns="http://www.w3.org/2000/svg">
<path d="M130.238 460.793C130.238 460.793 109.201 464.33 83.2508 468.694C57.3002 473.058 36.2631 476.595 36.2631 476.595C31.8995 450.644 49.3991 426.07 75.3497 421.706C101.3 417.343 125.875 434.842 130.238 460.793Z" fill="black"/>
<path d="M25.951 338.728L34.4807 336.442L50.5048 402.428L68.1921 462.255L59.6625 464.54L48.5412 416.096L25.951 338.728Z" fill="black"/>
<circle cx="28.8211" cy="389.954" r="14.9016" transform="rotate(-15 28.8211 389.954)" fill="black"/>
<circle cx="28.02" cy="374.17" r="14.9016" transform="rotate(-15 28.02 374.17)" fill="black"/>
<circle cx="31.7974" cy="352.017" r="19.8688" transform="rotate(-15 31.7974 352.017)" fill="black"/>
<ellipse cx="52.7062" cy="385.268" rx="20.4207" ry="13.2459" transform="rotate(-15 52.7062 385.268)" fill="black"/>
<circle cx="44.4313" cy="362.916" r="18.213" transform="rotate(-15 44.4313 362.916)" fill="black"/>
<path d="M159.913 212.178L127.873 218.301L129.185 225.167L161.225 219.044L171.066 270.536L133.305 277.752L134.618 284.618L172.379 277.402L173.253 281.978L238.231 327.677L212.575 332.58L213.887 339.446L246.189 333.273L260.948 343.653L273.385 408.727L218.46 419.224L219.772 426.089L274.697 415.592L277.978 432.756L129.223 461.186L117.195 398.252L144.658 393.003L143.345 386.137L115.883 391.386L102.543 321.586L130.005 316.337L128.692 309.471L101.23 314.72L91.1707 262.083L124.354 255.742L123.042 248.876L89.8585 255.217L87.5624 243.203L153.79 180.138L159.913 212.178ZM145.227 433.221L146.539 440.086L193.454 431.119L192.142 424.254L145.227 433.221ZM180.13 386.224L244.208 373.977L242.896 367.111L178.818 379.358L180.13 386.224ZM130.356 355.41L194.435 343.164L193.123 336.298L129.044 348.544L130.356 355.41Z" fill="black"/>
<path d="M437.817 419.603L293.661 436.322L291.591 418.475L435.747 401.756L437.817 419.603ZM435.269 397.637L291.114 414.356L286.337 373.168L430.493 356.449L435.269 397.637ZM430.015 352.331L285.859 369.049L281.082 327.862L425.238 311.143L430.015 352.331ZM424.76 307.025L280.605 323.744L275.828 282.556L419.983 265.837L424.76 307.025ZM419.506 261.718L275.35 278.437L270.573 237.249L414.729 220.53L419.506 261.718ZM411.84 195.625L414.251 216.412L270.095 233.13L265.319 191.944L387.012 177.83L411.84 195.625ZM381.999 174.237L264.841 187.825L260.064 146.637L331.87 138.309L381.999 174.237ZM326.857 134.716L259.586 142.518L252.501 81.4237L326.857 134.716Z" fill="black"/>
<path d="M1255.93 426.518L1231.83 505.123L1205.63 497.088L1210.98 479.62L1219.72 482.298L1222.4 473.564L1213.66 470.886L1216.34 462.152L1225.07 464.83L1227.75 456.097L1219.02 453.419L1220.4 448.921L1196.53 417.711L1199.16 409.109L1255.93 426.518ZM1210.29 450.74L1196.89 494.41L1175.06 487.714L1183.09 461.511L1165.63 456.155L1157.59 482.357L1135.76 475.661L1149.15 431.992L1186.41 419.531L1210.29 450.74ZM1221.7 444.685L1230.43 447.363L1233.11 438.629L1224.38 435.951L1221.7 444.685Z" fill="black"/>
<path d="M813.603 169.517L852.916 158.571L842.451 410.575L452.559 394.384L454.796 340.519C456.065 309.972 471.237 281.684 495.983 263.729L507.626 255.281C546.333 227.196 599.508 230.447 634.505 263.038L675.523 301.238L709.6 302.653L713.977 197.256L745.876 188.373L754.674 87.0165L755.026 185.826L806.188 171.581L813.317 89.4518L813.603 169.517ZM528.069 353.859L526.785 384.765L543.427 385.456L544.71 354.55L528.069 353.859ZM555.012 354.977L553.729 385.883L570.371 386.575L571.654 355.669L555.012 354.977ZM581.957 356.096L580.673 387.002L597.315 387.694L598.599 356.788L581.957 356.096ZM734.433 316.387L733.149 347.293L764.055 348.576L765.339 317.67L734.433 316.387ZM790.698 318.722L789.414 349.628L820.32 350.912L821.604 320.006L790.698 318.722ZM567.844 256.281C545.523 255.354 526.676 272.698 525.749 295.019C524.823 317.34 542.166 336.186 564.487 337.113C586.808 338.04 605.654 320.696 606.581 298.376C607.508 276.055 590.165 257.209 567.844 256.281ZM736.572 264.876L735.289 295.782L766.195 297.065L767.478 266.159L736.572 264.876ZM792.837 267.212L791.554 298.118L822.46 299.402L823.743 268.496L792.837 267.212ZM738.711 213.366L737.428 244.272L768.334 245.556L769.617 214.65L738.711 213.366ZM794.976 215.703L793.693 246.609L824.599 247.892L825.882 216.986L794.976 215.703Z" fill="black"/>
<path d="M477.074 221.999L485.664 229.363L495.322 223.47L490.972 233.914L499.562 241.279L488.284 240.369L483.935 250.814L481.314 239.808L470.037 238.899L479.695 233.005L477.074 221.999Z" fill="black"/>
<path d="M516.821 205.67L523.211 215.006L534.066 211.813L527.161 220.776L533.552 230.113L522.894 226.316L515.989 235.279L516.307 223.969L505.649 220.172L516.503 216.98L516.821 205.67Z" fill="black"/>
<path d="M560.455 198.848L564.212 209.52L575.523 209.245L566.533 216.116L570.29 226.788L560.978 220.362L551.989 227.232L555.223 216.39L545.911 209.964L557.221 209.69L560.455 198.848Z" fill="black"/>
<path d="M606.138 203.461L607.004 214.742L618.001 217.404L607.54 221.714L608.406 232.995L601.074 224.378L590.613 228.688L596.543 219.052L589.212 210.435L600.208 213.097L606.138 203.461Z" fill="black"/>
<path d="M649.478 223.277L644.588 233.48L652.78 241.283L641.565 239.785L636.675 249.988L634.634 238.86L623.42 237.362L633.373 231.982L631.332 220.853L639.525 228.657L649.478 223.277Z" fill="black"/>
<path d="M1060.02 34.2636C1060.01 34.2949 1025.41 135.531 1014.33 234.741C1003.26 333.887 1014.65 440.19 1014.67 440.358L865.258 423.673C865.319 423.519 902.631 328.462 914.345 223.575C926.067 118.603 910.609 17.5781 910.609 17.5781L1060.02 34.2636ZM939.354 347.388C940.91 359.763 943.68 367.265 947.535 367.696C951.39 368.126 955.747 361.42 959.994 349.693L939.354 347.388ZM937.984 327.064C938.119 332.76 938.406 337.994 938.842 342.676L961.533 345.21C962.991 340.739 964.426 335.697 965.813 330.172L937.984 327.064ZM938.1 306.908C937.93 312.335 937.867 317.516 937.91 322.402L966.915 325.641C968.034 320.885 969.116 315.817 970.147 310.487L938.1 306.908ZM939.153 286.855C938.77 292.154 938.477 297.305 938.27 302.272L971.005 305.928C971.899 301.037 972.748 295.948 973.543 290.695L939.153 286.855ZM940.955 266.887C940.393 272.104 939.911 277.231 939.507 282.24L974.217 286.116C974.927 281.142 975.588 276.034 976.191 270.822L940.955 266.887ZM943.443 246.994C942.733 251.969 942.071 257.076 941.468 262.289L976.704 266.224C977.267 261.007 977.748 255.879 978.153 250.87L943.443 246.994ZM946.656 227.183C945.762 232.073 944.912 237.162 944.116 242.414L978.506 246.255C978.889 240.956 979.183 235.806 979.39 230.839L946.656 227.183ZM950.745 207.469C949.625 212.226 948.543 217.293 947.512 222.624L979.559 226.203C979.73 220.776 979.793 215.594 979.75 210.708L950.745 207.469ZM956.126 187.901C954.669 192.371 953.233 197.413 951.846 202.938L979.675 206.045C979.541 200.351 979.253 195.117 978.817 190.435L956.126 187.901ZM970.125 165.415C966.27 164.985 961.913 171.691 957.666 183.418L978.305 185.723C976.75 173.348 973.98 165.846 970.125 165.415ZM952.731 89.2691C962.551 108.31 988.588 111.217 1002.37 94.8122L1047.85 40.6619L920.317 26.4201L952.731 89.2691Z" fill="black"/>
<path d="M1118.27 413.525C1123.75 390.255 1095.41 393.292 1095.41 393.292C1103.54 395.47 1110.84 406.556 1110.84 406.556C1088.37 395.556 1081.21 406.087 1081.21 406.087L1091.88 406.454C1099.19 406.742 1102.87 409.041 1104.35 412.268C1097.55 413.614 1087.52 418.337 1077.5 432.815C1076.82 407.696 1068.36 395.18 1061.48 389.169C1064.98 386.693 1070.23 386.501 1078.07 390.625L1089.46 396.688C1089.46 396.688 1088.33 381.327 1058.14 379.264C1058.14 379.264 1072.5 372.067 1082.33 374.701C1082.33 374.701 1054.47 354.376 1046.14 382.071C1046.14 382.071 1017.92 400.6 1037.11 415.794C1037.11 415.794 1037.78 394.518 1050.05 392.153C1050.05 392.153 1042.68 417.286 1055.62 420.753C1055.66 421.077 1052.54 401.515 1058.62 392.205C1077.63 423.671 1059.16 455.554 1059.16 455.554L1064.96 457.108L1075.63 459.967L1078.58 460.756C1078.58 460.756 1078.54 430.291 1105.16 415.624C1105.65 424.799 1095.33 437.521 1095.5 437.302C1106.21 440.17 1111.31 419.129 1111.31 419.129C1119.12 425.894 1110.8 441.401 1110.8 441.401C1130.82 438.458 1118.27 413.525 1118.27 413.525Z" fill="black"/>
</svg>
