<svg width="1360" height="768" viewBox="0 0 1360 768" fill="none" xmlns="http://www.w3.org/2000/svg">
<mask id="mask0_652_847" style="mask-type:alpha" maskUnits="userSpaceOnUse" x="0" y="0" width="1360" height="770">
<rect width="1360" height="770" fill="#D9D9D9"/>
</mask>
<g mask="url(#mask0_652_847)">
<path d="M250.402 661.63L-47.1413 719.961L45.9292 406.668L250.402 661.63Z" fill="black" stroke="black"/>
<rect x="23.2055" y="268.954" width="172.291" height="440.89" transform="rotate(-7.36555 23.2055 268.954)" fill="black" stroke="black"/>
<rect x="67.606" y="229.313" width="172.451" height="474.235" transform="rotate(-7.36555 67.606 229.313)" fill="black" stroke="black"/>
<rect x="107.297" y="145.328" width="172.451" height="552.438" transform="rotate(-7.36555 107.297 145.328)" fill="black" stroke="black"/>
<rect x="181.353" y="248.981" width="172.451" height="440.146" transform="rotate(-7.36555 181.353 248.981)" fill="black" stroke="black"/>
<rect x="276.12" y="309.519" width="157.412" height="367.959" transform="rotate(-7.36555 276.12 309.519)" fill="black" stroke="black"/>
<path d="M877.585 287.905C886.492 278.824 901.568 280.563 908.172 291.434L1119.2 638.793L592.998 578.081L877.585 287.905Z" fill="black" stroke="black"/>
<path d="M1257.6 130.813C1267.24 122.517 1282.12 125.525 1287.78 136.915L1602.17 769.389L722.192 591.465L1257.6 130.813Z" fill="black" stroke="black"/>
<rect x="381.917" y="111.818" width="249" height="483" transform="rotate(-3.64279 381.917 111.818)" fill="black" stroke="black"/>
<rect x="414.387" y="86.7046" width="181" height="506" transform="rotate(-3.64279 414.387 86.7046)" fill="black" stroke="black"/>
<circle cx="504.673" cy="80.4556" r="55.5" transform="rotate(-3.64279 504.673 80.4556)" fill="black" stroke="black"/>
<path d="M804.693 71.9175L755.097 615.916L647.543 606.111L697.14 62.1061L753.794 24.4919L804.693 71.9175Z" fill="black" stroke="black"/>
<path d="M912 37V43.8889M912 154.111V161M856.889 99H850M872.831 59.8306L867.222 54.2222M951.17 59.8306L956.778 54.2222M872.831 138.198L867.222 143.778M951.17 138.198L956.778 143.778M974 99H967.111" stroke="black" stroke-width="10" stroke-linecap="round" stroke-linejoin="round"/>
<circle cx="912.5" cy="99.5" r="34" fill="black" stroke="black"/>
<path d="M995.93 249C1002.96 249 1009.44 251.533 1014.62 255.791C1018.28 253.175 1022.49 251.685 1026.97 251.685C1032.33 251.685 1037.3 253.82 1041.41 257.465C1037.95 256.329 1034.23 255.711 1030.37 255.711C1024.62 255.711 1019.21 257.077 1014.45 259.489C1008.28 254.244 1000.06 251.013 990.726 251.013C988.447 251.013 986.197 251.206 984 251.573C987.668 249.916 991.699 249 995.93 249Z" fill="#D9D9D9"/>
<path d="M1033.2 174.002C1040.46 174.002 1047.14 176.617 1052.49 181.013C1056.27 178.312 1060.61 176.774 1065.24 176.773C1070.77 176.773 1075.9 178.977 1080.14 182.738C1076.57 181.566 1072.74 180.93 1068.75 180.93C1062.82 180.93 1057.23 182.34 1052.32 184.83C1045.95 179.415 1037.47 176.08 1027.83 176.08C1025.47 176.08 1023.15 176.279 1020.88 176.658C1024.67 174.947 1028.83 174.002 1033.2 174.002Z" fill="#D9D9D9"/>
<path d="M925.432 202C931.581 202 937.246 204.406 941.773 208.449C944.973 205.965 948.654 204.549 952.572 204.549C957.261 204.549 961.61 206.576 965.201 210.037C962.173 208.958 958.927 208.372 955.55 208.372C950.523 208.372 945.786 209.671 941.628 211.962C936.233 206.98 929.044 203.911 920.879 203.911C918.887 203.911 916.921 204.095 915 204.443C918.207 202.87 921.732 202 925.432 202Z" fill="#D9D9D9"/>
</g>
</svg>
