<svg width="2145" height="640" viewBox="0 0 2145 640" fill="none" xmlns="http://www.w3.org/2000/svg">
<path fill-rule="evenodd" clip-rule="evenodd" d="M711.592 574.793C707.129 585.471 701.801 594.467 695.403 601.912C677.686 622.45 645.309 629.487 604.639 631.605C545.983 634.701 470.066 627.55 396.063 636C349.041 641.374 314.088 640.759 288.654 636.296C191.559 619.285 233.571 546.284 274.901 536.469C330.62 523.263 333.147 603.484 333.147 534.67C333.147 504.158 357.124 436.894 406.581 442.427C456.63 448.006 451.417 499.923 451.303 528.91C451.372 522.169 453.989 480.705 505.587 474.854C578.659 466.587 551.948 545.418 562.446 545.418C591.478 508.462 660.677 503.657 693.626 532.075C704.625 541.547 720.267 554.071 711.592 574.793ZM1995.56 391.804C1995.56 392.098 1995.56 392.387 1995.56 392.672C1995.56 392.69 1995.55 392.378 1995.56 391.804C1995.67 375.73 1998.36 347.434 1970.29 344.364C1942.34 341.306 1928.79 378.485 1928.79 395.342C1928.79 433.377 1927.36 389.035 1895.88 396.34C1866.41 403.181 1836.34 465.648 1964.35 451.352C2035.13 443.447 2109.03 460.236 2133.48 432.504C2137.1 428.398 2140.11 423.422 2142.63 417.526C2147.54 406.067 2138.7 399.151 2132.49 393.91C2113.86 378.205 2074.76 380.857 2058.36 401.281C2052.43 401.281 2067.52 357.723 2026.23 362.287C1997.89 365.423 1995.7 387.169 1995.56 391.804ZM210.687 145.124C218.18 143.712 226.142 143.27 234.494 143.998C276.453 147.653 318.415 198.268 318.409 198.055C317.953 177.366 312.749 139.375 350.235 134.476C386.884 129.681 405.763 177.654 406.247 199.586C407.34 249.071 407.938 191.342 449.52 199.929C488.445 207.97 529.761 288.348 361.123 273.49C267.874 265.269 252.343 287.458 195.704 280.987C111.606 271.4 132.77 171.195 198.771 148.293L195.126 146.285C189.288 142.873 193.995 134.694 199.837 137.717L208.414 142.427C209.626 143.098 210.353 144.065 210.687 145.124ZM1830.66 165.817C1827.4 173.624 1823.51 180.199 1818.83 185.642C1805.88 200.656 1782.21 205.798 1752.48 207.347C1709.6 209.61 1654.11 204.384 1600.01 210.56C1565.64 214.488 1540.09 214.039 1521.49 210.776C1450.52 198.341 1481.23 144.976 1511.44 137.804C1552.17 128.148 1554.02 186.79 1554.02 136.488C1554.02 114.184 1571.55 65.011 1607.7 69.056C1644.29 73.135 1640.47 111.087 1640.39 132.276C1640.44 127.349 1642.36 97.039 1680.07 92.761C1733.49 86.719 1713.96 144.344 1721.64 144.344C1742.86 117.328 1793.45 113.816 1817.53 134.591C1825.57 141.514 1837.01 150.669 1830.66 165.817Z" fill="white" fill-opacity="0.75"/>
</svg>
