<svg width="1024" height="600" viewBox="0 0 1024 600" fill="none" xmlns="http://www.w3.org/2000/svg">
<mask id="mask0_667_808" style="mask-type:alpha" maskUnits="userSpaceOnUse" x="0" y="0" width="1024" height="600">
<rect width="1024" height="600" fill="#D9D9D9"/>
</mask>
<g mask="url(#mask0_667_808)">
<path d="M481.61 510.48C492.89 516.89 507.51 511.31 517.14 502.62C550.23 472.77 544.12 418 569.4 381.29C585.68 357.65 613.36 344.23 641.21 337.29C688.98 325.4 739.42 329.78 787.6 339.83C809.87 344.48 832.32 347.92 854.72 351.9C947.84 368.45 1034.47 343.49 1044.32 228.38" stroke="#C1C6C2" stroke-width="0.75" stroke-miterlimit="10"/>
<path d="M491.34 517.15C502.77 522.68 517.41 517.16 527.33 508.62C531.19 505.3 534.57 501.66 537.56 497.75C549.37 482.32 555.02 462.7 560.43 442.79C565.76 423.22 570.76 403.31 581.53 386.8C591.6 371.35 606.47 360.14 623.15 352.13C631.91 347.89 641.13 344.6 650.36 342.04C688.54 331.42 728.51 332.36 768.22 338.19C776.79 339.46 785.32 340.95 793.78 342.61C815.69 346.91 837.75 350.03 859.77 353.6C887.58 358.13 914.81 358.94 939.56 354.68C995.91 345.01 1039.66 308.78 1046.49 231.14" stroke="#C1C6C2" stroke-width="0.75" stroke-miterlimit="10"/>
<path d="M501.07 523.82C512.64 528.47 527.31 523.01 537.52 514.63C541.49 511.37 545 507.8 548.13 503.95C560.51 488.73 566.83 469.13 572.59 449.13C578.27 429.44 583.23 409.24 593.66 392.32C603.12 376.96 617.27 365.68 633.28 357.38C641.75 352.99 650.62 349.54 659.51 346.79C696.64 335.31 735.53 335.98 774.84 341.33C783.26 342.5 791.65 343.87 799.97 345.39C821.52 349.33 843.2 352.15 864.82 355.31C892.07 359.33 918.75 359.76 943.08 355.29C998.32 345.18 1041.84 309.16 1048.65 233.92" stroke="#C1C6C2" stroke-width="0.75" stroke-miterlimit="10"/>
<path d="M510.8 530.5C522.51 534.28 537.21 528.87 547.71 520.64C551.78 517.44 555.43 513.94 558.7 510.15C571.66 495.14 578.64 475.56 584.75 455.46C590.79 435.65 595.71 415.17 605.79 397.83C614.66 382.57 628.06 371.19 643.42 362.62C651.58 358.07 660.12 354.46 668.67 351.53C704.75 339.18 742.56 339.59 781.46 344.46C789.73 345.53 797.97 346.78 806.15 348.17C827.33 351.76 848.64 354.27 869.87 357.01C896.56 360.51 922.7 360.58 946.6 355.88C1000.74 345.32 1044.02 309.52 1050.82 236.68" stroke="#C1C6C2" stroke-width="0.75" stroke-miterlimit="10"/>
<path d="M520.53 537.17C532.39 540.07 547.11 534.71 557.9 526.64C562.08 523.51 565.85 520.08 569.27 516.34C582.81 501.55 590.45 481.98 596.91 461.79C603.3 441.87 608.2 421.12 617.92 403.35C626.21 388.19 638.85 376.69 653.55 367.87C661.41 363.15 669.62 359.39 677.82 356.29C712.85 343.06 749.59 343.14 788.07 347.61C796.2 348.55 804.29 349.71 812.33 350.96C833.15 354.2 854.08 356.4 874.92 358.73C901.05 361.72 926.65 361.41 950.12 356.49C1003.15 345.49 1046.21 309.9 1052.98 239.46" stroke="#C1C6C2" stroke-width="0.75" stroke-miterlimit="10"/>
<path d="M530.27 543.84C542.27 545.86 557.02 540.56 568.1 532.65C572.39 529.58 576.29 526.22 579.85 522.54C593.96 507.96 602.27 488.41 609.08 468.12C615.82 448.08 620.71 427.07 630.06 408.86C637.78 393.82 649.66 382.19 663.69 373.11C671.24 368.22 679.12 364.3 686.98 361.03C720.97 346.9 756.61 346.74 794.69 350.74C802.67 351.58 810.62 352.61 818.52 353.73C838.98 356.62 859.53 358.51 879.98 360.42C905.56 362.9 930.6 362.21 953.65 357.07C1005.57 345.62 1048.4 310.25 1055.15 242.22" stroke="#C1C6C2" stroke-width="0.75" stroke-miterlimit="10"/>
<path d="M540 550.52C552.14 551.67 566.92 546.42 578.29 538.66C582.68 535.65 586.72 532.36 590.41 528.73C605.1 514.36 614.07 494.84 621.23 474.45C628.33 454.29 633.22 433.03 642.18 414.37C649.34 399.46 660.44 387.68 673.81 378.35C681.06 373.29 688.6 369.21 696.12 365.78C729.06 350.74 763.62 350.35 801.29 353.88C809.13 354.61 816.93 355.53 824.69 356.51C844.78 359.04 864.96 360.63 885.01 362.13C910.03 364.09 934.53 363.03 957.15 357.67C1007.96 345.77 1050.56 310.62 1057.3 244.99" stroke="#C1C6C2" stroke-width="0.75" stroke-miterlimit="10"/>
<path d="M549.73 557.19C562.02 557.46 576.82 552.27 588.48 544.67C592.98 541.73 597.15 538.5 600.98 534.93C616.25 520.77 625.88 501.27 633.39 480.78C640.84 460.5 645.75 439 654.32 419.89C660.94 405.12 671.23 393.18 683.95 383.6C690.9 378.37 698.1 374.13 705.28 370.53C737.17 354.56 770.65 353.97 807.91 357.02C815.6 357.65 823.26 358.45 830.88 359.29C850.61 361.47 870.41 362.75 890.07 363.84C914.53 365.29 938.49 363.85 960.68 358.27C1010.38 345.93 1052.76 311 1059.47 247.76" stroke="#C1C6C2" stroke-width="0.75" stroke-miterlimit="10"/>
<path d="M559.46 563.86C571.89 563.26 586.72 558.12 598.66 550.67C603.27 547.79 607.56 544.64 611.54 541.12C627.38 527.17 637.69 507.69 645.54 487.11C653.35 466.71 658.28 444.99 666.44 425.4C672.53 410.77 682.01 398.66 694.08 388.84C700.72 383.44 707.58 379.03 714.43 375.27C745.26 358.35 777.67 357.58 814.53 360.15C822.07 360.68 829.59 361.36 837.06 362.06C856.43 363.89 875.85 364.82 895.12 365.53C919.02 366.42 942.43 364.65 964.2 358.85C1012.8 346.06 1054.94 311.35 1061.63 250.51" stroke="#C1C6C2" stroke-width="0.75" stroke-miterlimit="10"/>
<path d="M569.19 570.54C581.76 569.06 596.62 563.98 608.85 556.69C613.56 553.87 617.99 550.79 622.11 547.33C638.53 533.59 649.5 514.13 657.7 493.45C665.86 472.93 670.84 450.98 678.57 430.92C684.15 416.44 692.79 404.15 704.21 394.09C710.54 388.51 717.07 383.94 723.58 380.03C753.35 362.14 784.68 361.21 821.14 363.3C828.53 363.72 835.9 364.28 843.24 364.85C862.24 366.33 881.29 366.94 900.17 367.25C923.51 367.62 946.38 365.48 967.72 359.46C1015.21 346.23 1057.13 311.73 1063.8 253.29" stroke="#C1C6C2" stroke-width="0.75" stroke-miterlimit="10"/>
<path d="M578.92 577.21C591.64 574.85 606.52 569.83 619.04 562.69C623.86 559.94 628.42 556.92 632.68 553.52C649.68 539.99 661.31 520.55 669.86 499.78C678.37 479.14 683.42 456.98 690.7 436.44C695.78 422.12 703.58 409.63 714.34 399.34C720.36 393.58 726.55 388.84 732.73 384.78C761.42 365.91 791.7 364.84 827.75 366.44C835 366.76 842.22 367.2 849.42 367.63C868.06 368.75 886.72 369.06 905.21 368.95C927.99 368.81 950.32 366.29 971.23 360.06C1017.61 346.38 1059.3 312.1 1065.95 256.07" stroke="#C1C6C2" stroke-width="0.75" stroke-miterlimit="10"/>
<path d="M588.65 583.88C601.51 580.65 616.41 575.68 629.23 568.69C634.16 566 638.85 563.06 643.25 559.71C660.82 546.39 673.12 526.97 682.02 506.1C690.89 485.34 696.02 462.97 702.83 441.94C707.42 427.77 714.35 415.1 724.47 404.57C730.18 398.63 736.04 393.72 741.88 389.51C769.48 369.64 798.71 368.45 834.36 369.56C841.46 369.78 848.54 370.1 855.6 370.4C873.88 371.17 892.16 371.18 910.26 370.65C932.48 370 954.26 367.11 974.75 360.65C1020.02 346.52 1061.48 312.46 1068.12 258.83" stroke="#C1C6C2" stroke-width="0.75" stroke-miterlimit="10"/>
<path d="M598.39 590.56C611.39 586.45 626.32 581.54 639.43 574.71C644.46 572.08 649.28 569.21 653.83 565.92C671.98 552.81 684.94 533.41 694.19 512.45C703.41 491.58 708.66 469 714.97 447.47C719.08 433.46 725.13 420.59 734.62 409.83C740.01 403.71 745.53 398.63 751.05 394.28C777.55 373.38 805.75 372.1 840.99 372.72C847.94 372.84 854.88 373.04 861.79 373.2C879.7 373.62 897.61 373.35 915.32 372.37C936.98 371.25 958.22 367.94 978.28 361.26C1022.44 346.69 1063.68 312.84 1070.29 261.61" stroke="#C1C6C2" stroke-width="0.75" stroke-miterlimit="10"/>
<path d="M608.12 597.23C621.27 592.25 636.22 587.38 649.62 580.71C654.76 578.15 659.71 575.34 664.4 572.11C683.12 559.21 696.75 539.83 706.35 518.77C715.93 497.78 721.31 474.99 727.11 452.98C730.76 439.13 735.91 426.05 744.76 415.07C749.84 408.77 755.02 403.51 760.2 399.02C785.57 377.09 812.77 375.74 847.6 375.85C854.4 375.87 861.2 375.94 867.97 375.97C885.52 376.04 903.05 375.46 920.37 374.07C941.47 372.44 962.17 368.75 981.8 361.85C1024.85 346.83 1065.86 313.2 1072.45 264.37" stroke="#C1C6C2" stroke-width="0.75" stroke-miterlimit="10"/>
<path d="M617.85 603.9C631.14 598.04 646.12 593.23 659.81 586.72C665.05 584.22 670.14 581.48 674.96 578.31C694.26 565.62 708.55 546.26 718.49 525.11C728.42 504 733.96 481.01 739.22 458.5C742.42 444.81 746.65 431.53 754.87 420.32C759.63 413.83 764.46 408.4 769.33 403.78C793.54 380.79 819.76 379.45 854.2 379C860.85 378.94 867.51 378.87 874.14 378.76C891.33 378.47 908.48 377.59 925.4 375.78C945.95 373.64 966.09 369.57 985.3 362.45C1027.25 346.98 1068.02 313.58 1074.6 267.14" stroke="#C1C6C2" stroke-width="0.75" stroke-miterlimit="10"/>
<path d="M627.58 610.58C641.02 603.84 656.02 599.09 670 592.73C675.35 590.29 680.57 587.63 685.53 584.51C705.41 572.03 720.36 552.7 730.65 531.44C740.94 510.21 746.66 487.02 751.35 464.01C754.11 450.48 757.41 436.99 765 425.56C769.43 418.89 773.93 413.28 778.48 408.52C801.51 384.46 826.78 383.07 860.81 382.13C867.32 381.96 873.82 381.78 880.32 381.53C897.14 380.89 913.92 379.7 930.45 377.48C950.44 374.82 970.04 370.38 988.82 363.04C1029.66 347.13 1070.21 313.94 1076.76 269.9" stroke="#C1C6C2" stroke-width="0.75" stroke-miterlimit="10"/>
<path d="M637.31 617.25C656.09 606.72 677.64 601.77 696.1 590.7C716.55 578.43 732.17 559.12 742.81 537.77C753.45 516.42 759.39 493.03 763.48 469.53C765.81 456.15 768.16 442.46 775.13 430.81C800.33 388.7 827.26 386.97 867.42 385.28C910.09 383.48 952.84 379.91 992.33 363.65C1032.06 347.29 1072.38 314.32 1078.91 272.69" stroke="#C1C6C2" stroke-width="0.75" stroke-miterlimit="10"/>
<path d="M315.39 44.69C315.39 45.63 314.63 46.39 313.7 46.39C312.76 46.39 312 45.63 312 44.69C312 43.75 312.76 43 313.7 43C314.63 43 315.39 43.76 315.39 44.69Z" fill="#C1C6C2"/>
<path d="M331.45 44.69C331.45 45.63 330.69 46.39 329.76 46.39C328.83 46.39 328.06 45.63 328.06 44.69C328.06 43.75 328.82 43 329.76 43C330.7 43 331.45 43.76 331.45 44.69Z" fill="#C1C6C2"/>
<path d="M347.52 44.69C347.52 45.63 346.76 46.39 345.83 46.39C344.9 46.39 344.13 45.63 344.13 44.69C344.13 43.75 344.89 43 345.83 43C346.77 43 347.52 43.76 347.52 44.69Z" fill="#C1C6C2"/>
<path d="M363.59 44.69C363.59 45.63 362.83 46.39 361.89 46.39C360.95 46.39 360.2 45.63 360.2 44.69C360.2 43.75 360.96 43 361.89 43C362.83 43 363.59 43.76 363.59 44.69Z" fill="#C1C6C2"/>
<path d="M379.66 44.69C379.66 45.63 378.9 46.39 377.96 46.39C377.02 46.39 376.27 45.63 376.27 44.69C376.27 43.75 377.03 43 377.96 43C378.9 43 379.66 43.76 379.66 44.69Z" fill="#C1C6C2"/>
<path d="M395.73 44.69C395.73 45.63 394.97 46.39 394.04 46.39C393.1 46.39 392.34 45.63 392.34 44.69C392.34 43.75 393.1 43 394.04 43C394.97 43 395.73 43.76 395.73 44.69Z" fill="#C1C6C2"/>
<path d="M315.39 58.7501C315.39 59.6901 314.63 60.4401 313.7 60.4401C312.76 60.4401 312 59.6801 312 58.7501C312 57.8101 312.76 57.0601 313.7 57.0601C314.63 57.0601 315.39 57.8101 315.39 58.7501Z" fill="#C1C6C2"/>
<path d="M331.45 58.7501C331.45 59.6901 330.69 60.4401 329.76 60.4401C328.83 60.4401 328.06 59.6801 328.06 58.7501C328.06 57.8101 328.82 57.0601 329.76 57.0601C330.7 57.0601 331.45 57.8101 331.45 58.7501Z" fill="#C1C6C2"/>
<path d="M347.52 58.7501C347.52 59.6901 346.76 60.4401 345.83 60.4401C344.9 60.4401 344.13 59.6801 344.13 58.7501C344.13 57.8101 344.89 57.0601 345.83 57.0601C346.77 57.0601 347.52 57.8101 347.52 58.7501Z" fill="#C1C6C2"/>
<path d="M363.59 58.7501C363.59 59.6901 362.83 60.4401 361.89 60.4401C360.95 60.4401 360.2 59.6801 360.2 58.7501C360.2 57.8101 360.96 57.0601 361.89 57.0601C362.83 57.0601 363.59 57.8101 363.59 58.7501Z" fill="#C1C6C2"/>
<path d="M379.66 58.7501C379.66 59.6901 378.9 60.4401 377.96 60.4401C377.02 60.4401 376.27 59.6801 376.27 58.7501C376.27 57.8101 377.03 57.0601 377.96 57.0601C378.9 57.0601 379.66 57.8101 379.66 58.7501Z" fill="#C1C6C2"/>
<path d="M395.73 58.7501C395.73 59.6901 394.97 60.4401 394.04 60.4401C393.1 60.4401 392.34 59.6801 392.34 58.7501C392.34 57.8101 393.1 57.0601 394.04 57.0601C394.97 57.0601 395.73 57.8101 395.73 58.7501Z" fill="#C1C6C2"/>
<path d="M315.39 72.81C315.39 73.75 314.63 74.5 313.7 74.5C312.76 74.5 312 73.74 312 72.81C312 71.87 312.76 71.12 313.7 71.12C314.63 71.11 315.39 71.87 315.39 72.81Z" fill="#C1C6C2"/>
<path d="M331.45 72.81C331.45 73.75 330.69 74.5 329.76 74.5C328.83 74.5 328.06 73.74 328.06 72.81C328.06 71.87 328.82 71.12 329.76 71.12C330.7 71.12 331.45 71.87 331.45 72.81Z" fill="#C1C6C2"/>
<path d="M347.52 72.81C347.52 73.75 346.76 74.5 345.83 74.5C344.9 74.5 344.13 73.74 344.13 72.81C344.13 71.87 344.89 71.12 345.83 71.12C346.77 71.12 347.52 71.87 347.52 72.81Z" fill="#C1C6C2"/>
<path d="M363.59 72.81C363.59 73.75 362.83 74.5 361.89 74.5C360.95 74.5 360.2 73.74 360.2 72.81C360.2 71.87 360.96 71.12 361.89 71.12C362.83 71.11 363.59 71.87 363.59 72.81Z" fill="#C1C6C2"/>
<path d="M379.66 72.81C379.66 73.75 378.9 74.5 377.96 74.5C377.02 74.5 376.27 73.74 376.27 72.81C376.27 71.87 377.03 71.12 377.96 71.12C378.9 71.11 379.66 71.87 379.66 72.81Z" fill="#C1C6C2"/>
<path d="M395.73 72.81C395.73 73.75 394.97 74.5 394.04 74.5C393.1 74.5 392.34 73.74 392.34 72.81C392.34 71.87 393.1 71.12 394.04 71.12C394.97 71.11 395.73 71.87 395.73 72.81Z" fill="#C1C6C2"/>
<path d="M426.39 479.69C426.39 480.63 425.63 481.39 424.7 481.39C423.76 481.39 423 480.63 423 479.69C423 478.75 423.76 478 424.7 478C425.63 478 426.39 478.75 426.39 479.69Z" fill="#C1C6C2"/>
<path d="M442.46 479.69C442.46 480.63 441.7 481.39 440.77 481.39C439.84 481.39 439.08 480.63 439.08 479.69C439.08 478.75 439.84 478 440.77 478C441.7 478 442.46 478.75 442.46 479.69Z" fill="#C1C6C2"/>
<path d="M458.53 479.69C458.53 480.63 457.77 481.39 456.84 481.39C455.91 481.39 455.15 480.63 455.15 479.69C455.15 478.75 455.91 478 456.84 478C457.77 478 458.53 478.75 458.53 479.69Z" fill="#C1C6C2"/>
<path d="M474.6 479.69C474.6 480.63 473.84 481.39 472.9 481.39C471.96 481.39 471.21 480.63 471.21 479.69C471.21 478.75 471.97 478 472.9 478C473.84 478 474.6 478.75 474.6 479.69Z" fill="#C1C6C2"/>
<path d="M490.66 479.69C490.66 480.63 489.9 481.39 488.97 481.39C488.04 481.39 487.28 480.63 487.28 479.69C487.28 478.75 488.04 478 488.97 478C489.9 478 490.66 478.75 490.66 479.69Z" fill="#C1C6C2"/>
<path d="M506.73 479.69C506.73 480.63 505.97 481.39 505.04 481.39C504.11 481.39 503.35 480.63 503.35 479.69C503.35 478.75 504.11 478 505.04 478C505.97 478 506.73 478.75 506.73 479.69Z" fill="#C1C6C2"/>
<path d="M426.39 493.75C426.39 494.69 425.63 495.45 424.7 495.45C423.76 495.45 423 494.69 423 493.75C423 492.81 423.76 492.05 424.7 492.05C425.63 492.05 426.39 492.81 426.39 493.75Z" fill="#C1C6C2"/>
<path d="M440.76 495.44C441.693 495.44 442.45 494.683 442.45 493.75C442.45 492.817 441.693 492.06 440.76 492.06C439.827 492.06 439.07 492.817 439.07 493.75C439.07 494.683 439.827 495.44 440.76 495.44Z" fill="#C1C6C2"/>
<path d="M458.53 493.75C458.53 494.69 457.77 495.45 456.84 495.45C455.91 495.45 455.15 494.69 455.15 493.75C455.15 492.81 455.91 492.05 456.84 492.05C457.77 492.05 458.53 492.81 458.53 493.75Z" fill="#C1C6C2"/>
<path d="M474.6 493.75C474.6 494.69 473.84 495.45 472.9 495.45C471.96 495.45 471.21 494.69 471.21 493.75C471.21 492.81 471.97 492.05 472.9 492.05C473.84 492.05 474.6 492.81 474.6 493.75Z" fill="#C1C6C2"/>
<path d="M488.97 495.44C489.903 495.44 490.66 494.683 490.66 493.75C490.66 492.817 489.903 492.06 488.97 492.06C488.037 492.06 487.28 492.817 487.28 493.75C487.28 494.683 488.037 495.44 488.97 495.44Z" fill="#C1C6C2"/>
<path d="M506.73 493.75C506.73 494.69 505.97 495.45 505.04 495.45C504.11 495.45 503.35 494.69 503.35 493.75C503.35 492.81 504.11 492.05 505.04 492.05C505.97 492.05 506.73 492.81 506.73 493.75Z" fill="#C1C6C2"/>
<path d="M426.39 507.81C426.39 508.75 425.63 509.5 424.7 509.5C423.76 509.5 423 508.74 423 507.81C423 506.87 423.76 506.12 424.7 506.12C425.63 506.11 426.39 506.87 426.39 507.81Z" fill="#C1C6C2"/>
<path d="M442.46 507.81C442.46 508.75 441.7 509.5 440.77 509.5C439.84 509.5 439.08 508.74 439.08 507.81C439.08 506.87 439.84 506.12 440.77 506.12C441.7 506.12 442.46 506.87 442.46 507.81Z" fill="#C1C6C2"/>
<path d="M458.53 507.81C458.53 508.75 457.77 509.5 456.84 509.5C455.91 509.5 455.15 508.74 455.15 507.81C455.15 506.87 455.91 506.12 456.84 506.12C457.77 506.12 458.53 506.87 458.53 507.81Z" fill="#C1C6C2"/>
<path d="M474.6 507.81C474.6 508.75 473.84 509.5 472.9 509.5C471.96 509.5 471.21 508.74 471.21 507.81C471.21 506.87 471.97 506.12 472.9 506.12C473.84 506.11 474.6 506.87 474.6 507.81Z" fill="#C1C6C2"/>
<path d="M490.66 507.81C490.66 508.75 489.9 509.5 488.97 509.5C488.04 509.5 487.28 508.74 487.28 507.81C487.28 506.87 488.04 506.12 488.97 506.12C489.9 506.12 490.66 506.87 490.66 507.81Z" fill="#C1C6C2"/>
<path d="M506.73 507.81C506.73 508.75 505.97 509.5 505.04 509.5C504.11 509.5 503.35 508.74 503.35 507.81C503.35 506.87 504.11 506.12 505.04 506.12C505.97 506.12 506.73 506.87 506.73 507.81Z" fill="#C1C6C2"/>
<path d="M1007.81 58.39C1006.87 58.39 1006.11 57.63 1006.11 56.69C1006.11 55.75 1006.87 55 1007.81 55C1008.75 55 1009.5 55.76 1009.5 56.69C1009.5 57.63 1008.75 58.39 1007.81 58.39Z" fill="#C1C6C2"/>
<path d="M1007.81 74.4599C1006.87 74.4599 1006.11 73.6999 1006.11 72.7599C1006.11 71.8199 1006.87 71.0699 1007.81 71.0699C1008.75 71.0699 1009.5 71.8299 1009.5 72.7599C1009.5 73.6899 1008.75 74.4599 1007.81 74.4599Z" fill="#C1C6C2"/>
<path d="M1007.81 90.53C1006.87 90.53 1006.11 89.77 1006.11 88.84C1006.11 87.91 1006.87 87.14 1007.81 87.14C1008.75 87.14 1009.5 87.9 1009.5 88.84C1009.5 89.78 1008.75 90.53 1007.81 90.53Z" fill="#C1C6C2"/>
<path d="M1007.81 106.6C1006.87 106.6 1006.11 105.84 1006.11 104.91C1006.11 103.97 1006.87 103.21 1007.81 103.21C1008.75 103.21 1009.5 103.97 1009.5 104.91C1009.5 105.84 1008.75 106.6 1007.81 106.6Z" fill="#C1C6C2"/>
<path d="M1007.81 122.67C1006.87 122.67 1006.11 121.91 1006.11 120.98C1006.11 120.04 1006.87 119.28 1007.81 119.28C1008.75 119.28 1009.5 120.04 1009.5 120.98C1009.5 121.91 1008.75 122.67 1007.81 122.67Z" fill="#C1C6C2"/>
<path d="M1007.81 138.73C1006.87 138.73 1006.12 137.97 1006.12 137.04C1006.12 136.1 1006.88 135.35 1007.81 135.35C1008.74 135.35 1009.5 136.11 1009.5 137.04C1009.5 137.98 1008.75 138.73 1007.81 138.73Z" fill="#C1C6C2"/>
<path d="M993.75 58.39C992.81 58.39 992.05 57.63 992.05 56.69C992.05 55.75 992.81 55 993.75 55C994.69 55 995.45 55.76 995.45 56.69C995.45 57.63 994.69 58.39 993.75 58.39Z" fill="#C1C6C2"/>
<path d="M993.75 74.4599C992.81 74.4599 992.06 73.6999 992.06 72.7599C992.06 71.8199 992.82 71.0699 993.75 71.0699C994.69 71.0699 995.45 71.8299 995.45 72.7599C995.45 73.6899 994.69 74.4599 993.75 74.4599Z" fill="#C1C6C2"/>
<path d="M993.75 90.53C992.81 90.53 992.06 89.77 992.06 88.84C992.06 87.91 992.82 87.14 993.75 87.14C994.69 87.14 995.45 87.9 995.45 88.84C995.45 89.78 994.69 90.53 993.75 90.53Z" fill="#C1C6C2"/>
<path d="M993.75 106.6C992.81 106.6 992.06 105.84 992.06 104.91C992.06 103.97 992.82 103.21 993.75 103.21C994.69 103.21 995.45 103.97 995.45 104.91C995.45 105.84 994.69 106.6 993.75 106.6Z" fill="#C1C6C2"/>
<path d="M993.75 122.67C992.81 122.67 992.06 121.91 992.06 120.98C992.06 120.04 992.82 119.28 993.75 119.28C994.69 119.28 995.45 120.04 995.45 120.98C995.45 121.91 994.69 122.67 993.75 122.67Z" fill="#C1C6C2"/>
<path d="M993.75 138.73C992.81 138.73 992.06 137.97 992.06 137.04C992.06 136.1 992.82 135.35 993.75 135.35C994.69 135.35 995.45 136.11 995.45 137.04C995.45 137.98 994.69 138.73 993.75 138.73Z" fill="#C1C6C2"/>
<path d="M979.69 58.39C978.75 58.39 978 57.63 978 56.69C978 55.75 978.76 55 979.69 55C980.63 55 981.39 55.76 981.39 56.69C981.39 57.63 980.63 58.39 979.69 58.39Z" fill="#C1C6C2"/>
<path d="M979.69 74.4599C978.75 74.4599 978 73.6999 978 72.7599C978 71.8199 978.76 71.0699 979.69 71.0699C980.63 71.0699 981.39 71.8299 981.39 72.7599C981.39 73.6899 980.63 74.4599 979.69 74.4599Z" fill="#C1C6C2"/>
<path d="M979.69 90.53C978.75 90.53 978 89.77 978 88.84C978 87.91 978.76 87.14 979.69 87.14C980.63 87.14 981.39 87.9 981.39 88.84C981.39 89.78 980.63 90.53 979.69 90.53Z" fill="#C1C6C2"/>
<path d="M979.69 106.6C978.75 106.6 978 105.84 978 104.91C978 103.97 978.76 103.21 979.69 103.21C980.63 103.21 981.39 103.97 981.39 104.91C981.39 105.84 980.63 106.6 979.69 106.6Z" fill="#C1C6C2"/>
<path d="M979.69 122.67C978.75 122.67 978 121.91 978 120.98C978 120.04 978.76 119.28 979.69 119.28C980.63 119.28 981.39 120.04 981.39 120.98C981.39 121.91 980.63 122.67 979.69 122.67Z" fill="#C1C6C2"/>
<path d="M979.69 138.73C978.75 138.73 978 137.97 978 137.04C978 136.1 978.76 135.35 979.69 135.35C980.63 135.35 981.39 136.11 981.39 137.04C981.39 137.98 980.63 138.73 979.69 138.73Z" fill="#C1C6C2"/>
<path d="M480.4 149.68C479.46 149.68 478.7 148.92 478.7 147.99C478.7 147.05 479.46 146.3 480.4 146.3C481.34 146.3 482.09 147.06 482.09 147.99C482.09 148.92 481.33 149.68 480.4 149.68Z" fill="#C1C6C2"/>
<path d="M480.4 165.75C479.46 165.75 478.7 164.99 478.7 164.06C478.7 163.12 479.46 162.37 480.4 162.37C481.34 162.37 482.09 163.13 482.09 164.06C482.09 164.99 481.33 165.75 480.4 165.75Z" fill="#C1C6C2"/>
<path d="M480.4 181.82C479.46 181.82 478.7 181.06 478.7 180.13C478.7 179.19 479.46 178.44 480.4 178.44C481.34 178.44 482.09 179.2 482.09 180.13C482.09 181.06 481.33 181.82 480.4 181.82Z" fill="#C1C6C2"/>
<path d="M480.4 197.88C479.46 197.88 478.7 197.12 478.7 196.19C478.7 195.25 479.46 194.5 480.4 194.5C481.34 194.5 482.09 195.26 482.09 196.19C482.09 197.13 481.33 197.88 480.4 197.88Z" fill="#C1C6C2"/>
<path d="M480.4 213.95C479.46 213.95 478.7 213.19 478.7 212.26C478.7 211.32 479.46 210.56 480.4 210.56C481.34 210.56 482.09 211.32 482.09 212.26C482.09 213.19 481.33 213.95 480.4 213.95Z" fill="#C1C6C2"/>
<path d="M480.4 230.02C479.46 230.02 478.71 229.26 478.71 228.32C478.71 227.38 479.47 226.63 480.4 226.63C481.33 226.63 482.09 227.39 482.09 228.32C482.09 229.26 481.33 230.02 480.4 230.02Z" fill="#C1C6C2"/>
<path d="M466.34 149.68C465.4 149.68 464.64 148.92 464.64 147.99C464.64 147.05 465.4 146.3 466.34 146.3C467.28 146.3 468.03 147.06 468.03 147.99C468.03 148.92 467.28 149.68 466.34 149.68Z" fill="#C1C6C2"/>
<path d="M466.34 165.75C465.4 165.75 464.65 164.99 464.65 164.06C464.65 163.12 465.41 162.37 466.34 162.37C467.28 162.37 468.03 163.13 468.03 164.06C468.03 164.99 467.28 165.75 466.34 165.75Z" fill="#C1C6C2"/>
<path d="M466.34 181.82C465.4 181.82 464.65 181.06 464.65 180.13C464.65 179.19 465.41 178.44 466.34 178.44C467.28 178.44 468.03 179.2 468.03 180.13C468.03 181.06 467.28 181.82 466.34 181.82Z" fill="#C1C6C2"/>
<path d="M466.34 197.88C465.4 197.88 464.65 197.12 464.65 196.19C464.65 195.25 465.41 194.5 466.34 194.5C467.28 194.5 468.03 195.26 468.03 196.19C468.03 197.13 467.28 197.88 466.34 197.88Z" fill="#C1C6C2"/>
<path d="M466.34 213.95C465.4 213.95 464.65 213.19 464.65 212.26C464.65 211.32 465.41 210.56 466.34 210.56C467.28 210.56 468.03 211.32 468.03 212.26C468.03 213.19 467.28 213.95 466.34 213.95Z" fill="#C1C6C2"/>
<path d="M466.34 230.02C465.4 230.02 464.65 229.26 464.65 228.32C464.65 227.38 465.41 226.63 466.34 226.63C467.28 226.63 468.03 227.39 468.03 228.32C468.03 229.26 467.28 230.02 466.34 230.02Z" fill="#C1C6C2"/>
<path d="M452.28 149.68C451.34 149.68 450.59 148.92 450.59 147.99C450.59 147.05 451.35 146.3 452.28 146.3C453.22 146.3 453.98 147.06 453.98 147.99C453.98 148.92 453.22 149.68 452.28 149.68Z" fill="#C1C6C2"/>
<path d="M452.28 165.75C451.34 165.75 450.59 164.99 450.59 164.06C450.59 163.12 451.35 162.37 452.28 162.37C453.22 162.37 453.98 163.13 453.98 164.06C453.98 164.99 453.22 165.75 452.28 165.75Z" fill="#C1C6C2"/>
<path d="M452.28 181.82C451.34 181.82 450.59 181.06 450.59 180.13C450.59 179.19 451.35 178.44 452.28 178.44C453.22 178.44 453.98 179.2 453.98 180.13C453.98 181.06 453.22 181.82 452.28 181.82Z" fill="#C1C6C2"/>
<path d="M452.28 197.88C451.34 197.88 450.59 197.12 450.59 196.19C450.59 195.25 451.35 194.5 452.28 194.5C453.22 194.5 453.98 195.26 453.98 196.19C453.98 197.13 453.22 197.88 452.28 197.88Z" fill="#C1C6C2"/>
<path d="M452.28 213.95C451.34 213.95 450.59 213.19 450.59 212.26C450.59 211.33 451.35 210.56 452.28 210.56C453.22 210.56 453.98 211.32 453.98 212.26C453.98 213.19 453.22 213.95 452.28 213.95Z" fill="#C1C6C2"/>
<path d="M452.28 230.02C451.34 230.02 450.59 229.26 450.59 228.32C450.59 227.38 451.35 226.63 452.28 226.63C453.22 226.63 453.98 227.39 453.98 228.32C453.98 229.26 453.22 230.02 452.28 230.02Z" fill="#C1C6C2"/>
<path opacity="0.6" d="M1058 304.699L1057.68 306.334C1057.29 306.26 1033.51 301.465 1006.25 294.217C1004.76 294.737 995.792 297.835 984.42 301.638C979.775 306.632 961.281 325.217 935.577 334.039C905.724 344.273 858.542 324.696 858.542 324.696C858.542 324.696 893.535 297.773 927.786 294.08C957.49 290.884 979.118 297.971 984.333 299.904C992.732 297.091 999.768 294.688 1003.36 293.449C986.811 288.976 969.246 283.648 955.025 277.936C951.433 276.499 947.754 274.938 944.038 273.29C942.911 273.24 934.302 272.869 923.215 272.844C916.922 276.61 890.253 291.962 868.687 295.282C844.073 299.074 808.906 276.288 808.906 276.288C808.906 276.288 837 253.937 866.829 252.264C889.77 250.975 917.096 267.268 923.289 271.171C930.239 271.184 936.197 271.332 939.963 271.456C923.748 264.059 906.691 254.953 890.154 244.842C882.498 245.164 846.39 245.697 822.718 228.339C796.123 208.837 789 158 789 158C789 158 839.614 172.682 855.395 188.418C858.653 191.664 862.097 195.963 865.528 200.746C858.74 183.499 854.293 166.202 854.293 166.202C854.293 166.202 895.988 177.366 916.786 207.585C930.053 226.852 936.085 253.664 937.386 260.119C945.735 268.247 952.387 274.541 953.328 275.433C954.096 275.756 954.864 276.065 955.62 276.363C972.9 283.289 995.135 289.67 1014.47 294.613C1012.02 291.912 1007.39 286.845 1001.85 280.997C996.386 280.055 975.526 275.867 957.961 264.158C937.559 250.542 925.024 209.047 925.024 209.047C925.024 209.047 958.048 209.791 976.071 226.728C991.828 241.534 1000.78 272.125 1002.78 279.559C1010.33 287.539 1016.28 294.13 1017.39 295.357C1039.84 301.044 1057.67 304.637 1058 304.699ZM935.689 260.801C928.083 257.74 900.757 246.292 885.967 234.075C888.296 238.325 890.042 241.683 890.946 243.442C911.794 256.154 932.022 266.401 949.03 273.662C946.008 270.775 941.189 266.153 935.689 260.801Z" fill="#C1C6C2"/>
<path d="M345.97 0C346.494 48.9209 340.094 97.9167 327.043 145.066C321.753 164.18 315.178 183.357 303.263 199.215C291.347 215.06 273.219 227.3 253.406 227.874C238.222 228.323 223.749 222.097 209.788 216.096C173.131 200.35 133.655 185.079 94.3411 191.928C68.0279 196.52 43.6235 211.329 27.4039 232.565C11.1843 253.8 3.32398 281.236 5.83178 307.836" stroke="#C1C6C2" stroke-width="0.75" stroke-miterlimit="10"/>
<path d="M335.777 0.910767C336.95 47.6732 331.198 94.5106 319.557 139.926C314.691 158.915 308.528 178.167 296.675 193.925C285.047 209.383 267.43 221.248 248.153 222.059C233.406 222.671 219.27 216.969 205.62 211.442C193.63 206.588 181.341 201.76 168.877 197.742C144.048 189.732 118.483 184.966 92.9812 189.408C85.3705 190.731 77.9219 192.901 70.7853 195.821C53.8545 202.758 38.6579 213.925 27.3416 228.223C24.9586 231.242 22.7377 234.399 20.704 237.655C9.05082 256.408 3.43633 278.99 5.45754 301.074" stroke="#C1C6C2" stroke-width="0.75" stroke-miterlimit="10"/>
<path d="M325.596 1.82153C327.43 46.4256 322.352 91.1294 312.096 134.773C307.654 153.65 301.903 172.951 290.1 188.634C278.759 203.706 261.653 215.197 242.913 216.245C228.602 217.031 214.816 211.841 201.466 206.788C189.738 202.346 177.735 197.905 165.583 194.211C141.366 186.863 116.462 182.546 91.6212 186.863C84.2101 188.148 76.9487 190.231 69.9867 193.014C53.4427 199.614 38.5206 210.194 27.2792 223.868C24.9086 226.751 22.7002 229.77 20.679 232.902C9.0383 250.88 3.18676 272.789 5.10816 294.312" stroke="#C1C6C2" stroke-width="0.75" stroke-miterlimit="10"/>
<path d="M315.403 2.7323C317.898 45.1779 313.543 87.7731 304.61 129.62C300.605 148.385 295.253 167.748 283.512 183.332C272.458 198.029 255.876 209.146 237.661 210.419C223.774 211.367 210.337 206.701 197.299 202.122C185.845 198.092 174.117 194.037 162.264 190.668C138.671 183.968 114.416 180.125 90.2489 184.317C83.0374 185.565 75.9631 187.561 69.1633 190.206C53.0185 196.482 38.3585 206.464 27.2044 219.502C24.8463 222.246 22.6504 225.129 20.6292 228.135C9.00094 245.341 2.91233 266.576 4.73392 287.524" stroke="#C1C6C2" stroke-width="0.75" stroke-miterlimit="10"/>
<path d="M305.221 3.65576C308.378 43.9429 304.772 84.4421 297.137 124.48C293.581 143.145 288.603 162.546 276.937 178.054C266.17 192.365 250.1 203.107 232.42 204.617C218.97 205.74 205.87 201.585 193.144 197.481C181.952 193.875 170.511 190.194 158.97 187.162C135.988 181.124 112.407 177.742 88.9014 181.81C81.8895 183.02 75.0024 184.929 68.3648 187.424C52.6193 193.376 38.2212 202.771 27.1544 215.172C24.8213 217.793 22.6379 220.537 20.6042 223.407C8.98842 239.851 2.66276 260.413 4.37206 280.787" stroke="#C1C6C2" stroke-width="0.75" stroke-miterlimit="10"/>
<path d="M295.028 4.56653C298.833 42.6952 296.039 81.1233 289.663 119.327C286.556 137.904 281.965 157.343 270.349 172.764C259.869 186.688 244.31 197.056 227.18 198.803C214.167 200.101 201.416 196.457 188.989 192.827C178.072 189.633 166.893 186.339 155.676 183.631C133.306 178.241 110.386 175.322 87.5414 179.277C80.7167 180.45 74.0167 182.259 67.5538 184.63C52.195 190.244 38.0715 199.053 27.092 210.818C24.7713 213.301 22.6004 215.909 20.5667 218.641C8.95096 234.312 2.40071 254.199 4.0102 274.012" stroke="#C1C6C2" stroke-width="0.75" stroke-miterlimit="10"/>
<path d="M284.847 5.47729C289.314 41.4475 287.367 77.8169 282.19 114.174C279.557 132.664 275.327 152.128 263.774 167.462C253.581 180.999 238.534 190.993 221.94 192.964C209.351 194.424 196.949 191.317 184.834 188.148C174.179 185.366 163.287 182.459 152.383 180.076C130.623 175.334 108.365 172.889 86.1939 176.719C79.5688 177.867 73.056 179.576 66.7553 181.81C51.7958 187.1 37.9342 195.309 27.0296 206.451C24.7339 208.797 22.563 211.28 20.5418 213.875C8.93849 228.772 2.15119 247.986 3.66087 267.225" stroke="#C1C6C2" stroke-width="0.75" stroke-miterlimit="10"/>
<path d="M274.654 6.38806C279.782 40.1998 278.734 74.523 274.704 109.033C272.545 127.449 268.677 146.938 257.186 162.184C247.28 175.334 232.745 184.966 216.687 187.162C204.535 188.797 192.482 186.202 180.667 183.494C170.274 181.124 159.669 178.603 149.064 176.545C127.916 172.465 106.331 170.481 84.8215 174.174C78.396 175.284 72.0703 176.906 65.9318 179.003C51.3591 183.968 37.772 191.591 26.9548 202.084C24.6715 204.305 22.5131 206.638 20.4919 209.109C8.90107 223.232 1.8767 241.773 3.28656 260.45" stroke="#C1C6C2" stroke-width="0.75" stroke-miterlimit="10"/>
<path d="M264.473 7.29883C270.262 38.9521 270.175 71.2541 267.243 103.881C265.596 122.234 262.04 141.722 250.624 156.881C241.004 169.645 226.98 178.903 211.459 181.336C199.744 183.132 188.028 181.061 176.525 178.828C166.406 176.869 156.076 174.735 145.782 173.014C125.246 169.583 104.322 168.06 83.474 171.641C77.2481 172.714 71.1096 174.249 65.1333 176.195C50.9598 180.837 37.6347 187.861 26.9048 197.73C24.6341 199.814 22.4881 202.022 20.4669 204.343C8.88854 217.705 1.62714 235.572 2.92471 253.675" stroke="#C1C6C2" stroke-width="0.75" stroke-miterlimit="10"/>
<path d="M254.279 8.20959C260.717 37.7044 261.641 67.9852 259.757 98.7277C258.634 117.018 255.39 136.519 244.024 151.591C234.691 163.968 221.179 172.851 206.194 175.521C194.915 177.493 183.549 175.933 172.345 174.174C162.489 172.627 152.445 170.88 142.464 169.483C122.538 166.713 102.289 165.652 82.1016 169.108C76.0753 170.144 70.1115 171.591 64.3099 173.4C50.5356 177.705 37.4726 184.143 26.83 193.376C24.5842 195.322 22.4382 197.393 20.417 199.589C8.83868 212.178 1.35268 229.371 2.55044 246.9" stroke="#C1C6C2" stroke-width="0.75" stroke-miterlimit="10"/>
<path d="M244.098 9.13281C251.198 36.4691 253.181 64.7412 252.283 93.5872C251.722 111.828 248.752 131.317 237.448 146.301C228.415 158.291 215.402 166.813 200.967 169.707C190.112 171.853 179.095 170.805 168.203 169.52C158.621 168.397 148.852 167.025 139.17 165.952C119.856 163.831 100.268 163.244 80.7541 166.576C74.915 167.574 69.1508 168.921 63.5113 170.606C50.1239 174.586 37.3228 180.437 26.7676 189.021C24.5343 190.83 22.4008 192.777 20.392 194.835C8.82618 206.651 1.10313 223.17 2.20108 240.138" stroke="#C1C6C2" stroke-width="0.75" stroke-miterlimit="10"/>
<path d="M233.905 10.0438C241.665 35.2092 244.772 61.485 244.809 88.4346C244.834 106.613 242.115 126.114 230.873 141.011C222.127 152.614 209.625 160.762 195.726 163.893C185.308 166.202 174.641 165.69 164.048 164.867C154.728 164.155 145.246 163.17 135.876 162.434C117.173 160.961 98.2463 160.837 79.3941 164.043C73.7546 165.004 68.1776 166.264 62.7003 167.811C49.7121 171.467 37.1731 176.719 26.7052 184.679C24.4968 186.364 22.3758 188.16 20.3546 190.094C8.80121 201.136 0.841112 216.982 1.83924 233.388" stroke="#C1C6C2" stroke-width="0.75" stroke-miterlimit="10"/>
<path d="M223.724 10.9546C232.146 33.9615 236.425 58.2286 237.336 83.2942C237.997 101.41 235.477 120.911 224.298 135.734C215.839 146.95 203.849 154.723 190.486 158.092C180.505 160.575 170.174 160.575 159.893 160.225C150.835 159.926 141.628 159.327 132.582 158.915C114.491 158.104 96.2376 158.441 78.0467 161.523C72.6069 162.446 67.2045 163.619 61.9019 165.016C49.3129 168.335 37.0359 173.001 26.6554 180.325C24.4595 181.872 22.3509 183.544 20.3297 185.328C8.78878 195.609 0.591622 210.768 1.47746 226.601" stroke="#C1C6C2" stroke-width="0.75" stroke-miterlimit="10"/>
<path d="M213.531 11.8654C222.601 32.7138 228.128 54.9597 229.85 78.1413C231.198 96.195 228.814 115.709 217.698 130.431C209.526 141.261 198.047 148.659 185.221 152.265C175.664 154.91 165.695 155.434 155.714 155.559C146.93 155.671 137.997 155.459 129.263 155.372C111.784 155.21 94.1915 156.021 76.6742 158.978C71.434 159.863 66.2188 160.949 61.0784 162.209C48.8763 165.203 36.8737 169.283 26.5805 175.971C24.3971 177.381 22.301 178.915 20.2798 180.575C8.75137 190.082 0.317142 204.58 1.10317 219.839" stroke="#C1C6C2" stroke-width="0.75" stroke-miterlimit="10"/>
<path d="M203.35 12.7761C213.081 31.4661 219.894 51.6658 222.389 72.9884C224.485 90.9673 222.189 110.493 211.135 125.141C203.25 135.584 192.283 142.621 179.993 146.438C170.873 149.258 161.241 150.294 151.572 150.893C143.05 151.417 134.404 151.591 125.969 151.828C109.101 152.327 92.1827 153.588 75.3142 156.432C70.2612 157.281 65.2456 158.279 60.2674 159.402C48.4645 162.072 36.7239 165.553 26.5056 171.604C24.3471 172.889 22.2511 174.274 20.2423 175.808C8.71389 184.542 0.0550894 198.366 0.741305 213.064" stroke="#C1C6C2" stroke-width="0.75" stroke-miterlimit="10"/>
<path d="M193.156 13.6993C203.549 30.2309 211.697 48.3595 214.903 67.848C217.835 85.7146 215.539 105.303 204.547 119.851C196.949 129.907 186.494 136.569 174.753 140.624C166.069 143.619 156.787 145.166 147.417 146.239C139.17 147.175 130.798 147.736 122.676 148.31C106.419 149.458 90.1615 151.192 73.9668 153.912C69.1134 154.723 64.285 155.634 59.469 156.619C48.0528 158.965 36.5868 161.847 26.4557 167.274C24.3098 168.422 22.2262 169.682 20.2174 171.067C8.70148 179.027 -0.194374 192.178 0.392029 206.301" stroke="#C1C6C2" stroke-width="0.75" stroke-miterlimit="10"/>
<path d="M0.0176813 199.526C-0.456431 185.964 8.664 173.5 20.18 166.301C31.6834 159.102 45.3079 156.245 58.6579 153.812C78.7828 150.131 99.0448 147.125 119.369 144.779C148.091 141.473 180.53 137.63 197.972 114.561C208.902 100.1 211.31 80.412 207.442 62.6951C203.574 44.9783 194.03 28.9832 182.988 14.6101" stroke="#C1C6C2" stroke-width="0.75" stroke-miterlimit="10"/>
<path opacity="0.6" d="M0.0500031 591.11C-3.05 574.38 -12.47 552.06 -12.47 552.06C-12.47 552.06 -21.1 574.53 -15.97 592.19C-11.5 607.57 -0.330006 617.66 2.48 620C-21.2 656.85 -33.79 683.88 -34 684.33L-32.4 685.07C-32.2 684.63 -20.18 658.83 2.43999 623.33C40.45 641.72 78.22 616.68 78.22 616.68C78.22 616.68 46.29 610.88 30.67 611.7C18.64 612.33 7.89999 618.64 3.59999 621.51C9.30999 612.6 15.68 603.11 22.68 593.28C25.42 595.7 36.57 604.53 56.45 607.23C77.41 610.07 95.52 596.34 95.52 596.34C84.65 595.15 69.03 590.54 51.36 588.81C37.52 587.46 27.34 590.59 23.59 592.01C28.52 585.12 33.77 578.06 39.31 570.92C42.61 572.22 54.99 576.93 69.41 580.59C86.3 584.88 111.42 577.63 111.42 577.63C111.42 577.63 89.11 568.33 70.31 566.05C55.57 564.26 44.36 568.05 40.2 569.78C46.08 562.25 52.29 554.64 58.83 547.04C61.78 549.61 74.18 559.97 87.21 564.9C102.15 570.55 124.42 567.33 124.42 567.33C124.42 567.33 89.96 538.42 59.69 546.03C62.85 542.37 66.08 538.72 69.39 535.08C72.57 531.58 75.82 528.11 79.12 524.67C95.59 532.57 101.85 544.34 120.55 550.54C139.57 556.84 150.13 546.08 150.13 546.08C133.32 542.87 120.27 529.55 105.13 524.13C93.65 520.02 84.15 522.22 80.22 523.53C84.16 519.45 88.17 515.41 92.23 511.43C125.3 526.61 161.21 524.05 161.21 524.05C161.21 524.05 138.74 507.6 121.33 505.08C108.96 503.29 99.04 507.05 94.34 509.38C102.78 501.18 111.43 493.21 120.12 485.52C123.25 488 136.18 497.9 149.49 503.44C164.79 509.8 185.76 508.56 185.76 508.56C159.37 481.6 128.49 483.71 121.06 484.68C127.16 479.31 133.27 474.08 139.34 469.01C141.95 471.45 151.9 480.18 163.13 482.21C176.22 484.58 197.18 481.25 205.96 484.79C205.96 484.79 169.93 455.01 142.19 466.65C148.73 461.24 155.21 456.02 161.56 451.03C163.71 453 170.92 458.92 182.43 461.45C196.32 464.5 210.8 460.27 223.54 462.34C223.54 462.34 189.31 441.32 163.67 449.38C170.44 444.09 177.03 439.06 183.37 434.33C187.17 435.9 201.45 441.39 217.18 442.35C235.56 443.47 258.79 434.63 258.79 434.63C258.79 434.63 214.82 421.92 185.8 432.52C195.79 425.11 205.08 418.46 213.32 412.72C217.93 412.48 231.38 410.96 244.58 401.59C260.85 390.04 275.59 365.11 275.59 365.11C275.59 365.11 249.42 373.48 234.56 385.82C222.79 395.6 215.3 406.78 212.69 411.01C205.51 416.01 197.52 421.7 188.96 427.99C208.7 395.22 196.63 358 196.63 358C196.63 358 184.52 380.29 182.62 400.03C181.09 415.95 184.82 426.47 186.32 429.94C177.38 436.55 167.88 443.78 158.06 451.54C160.43 447.07 165.72 435.09 165.42 417.68C165.04 395.3 156.97 389.95 155.12 377.2C155.12 377.2 141.68 409.42 156.66 452.65C151.71 456.58 146.69 460.64 141.63 464.82C154.75 434.34 137.91 399.93 137.91 399.93C137.91 399.93 126.72 420.55 128.42 436.68C130.32 454.75 138.02 463.72 140.25 465.97C132.86 472.1 125.4 478.48 117.96 485.07C119.88 479.06 124.26 457.81 100.24 435.36C100.24 435.36 103.17 443.52 103.99 452.27C104.8 460.9 100.97 472.46 116.7 486.19C110.5 491.71 104.32 497.38 98.23 503.18C99.24 499.1 101.36 487.7 97.89 473.88C93.53 456.51 83.82 445.2 88.55 428.27C88.55 428.27 70.36 443.26 77.81 468.15C83.56 487.37 94.6 501.09 97.22 504.16C90.29 510.78 83.49 517.55 76.9 524.45C83.33 496.07 61.11 463.16 61.11 463.16C61.11 463.16 54.86 477.38 56.74 493.89C58.39 508.34 72.22 522.5 75.63 525.79C73.08 528.48 70.56 531.19 68.08 533.91C65.44 536.81 62.86 539.71 60.32 542.62C61.72 538.31 63.97 528.58 60.22 518.2C55.18 504.25 43.71 490.47 43.08 481.27C43.08 481.27 26.52 517.84 58.78 544.39C51.21 553.13 44.08 561.88 37.39 570.52C38.71 564.83 41.35 550.72 39.24 536.02C36.5 516.97 23.32 492.67 23.32 492.67C23.32 492.67 18.39 516.48 20.99 535.21C23.25 551.48 33.45 568.11 36.09 572.2C30.71 579.19 25.62 586.1 20.83 592.84C23.05 587 26.6 575.08 23.57 564.63C19.37 550.15 8.39999 534.38 7.49998 528.57C7.49998 528.57 -7.88 558.67 18.8 595.72C13.13 603.79 7.88999 611.61 3.09999 619.04C3.00999 615.2 2.52 604.44 0.0500031 591.11Z" fill="#C1C6C2"/>
</g>
</svg>
