<svg width="819" height="1769" viewBox="0 0 819 1769" fill="none" xmlns="http://www.w3.org/2000/svg">
<mask id="mask0_672_4" style="mask-type:alpha" maskUnits="userSpaceOnUse" x="0" y="0" width="820" height="1769">
<rect width="820" height="1769" fill="#D9D9D9"/>
</mask>
<g mask="url(#mask0_672_4)">
<mask id="mask1_672_4" style="mask-type:alpha" maskUnits="userSpaceOnUse" x="0" y="0" width="819" height="306">
<rect width="819" height="306" fill="#D9D9D9"/>
</mask>
<g mask="url(#mask1_672_4)">
<path d="M96.56 150.962C90.695 121.853 64.94 100 34 100C9.435 100 -11.9 113.837 -22.525 134.088C-48.11 136.788 -68 158.303 -68 184.375C-68 212.303 -45.135 235 -17 235H93.5C116.96 235 136 216.1 136 192.812C136 170.537 118.575 152.481 96.56 150.962Z" fill="black"/>
<path d="M457.613 206.127C453.243 184.349 434.053 168 411 168C392.697 168 376.8 178.352 368.883 193.503C349.82 195.523 335 211.619 335 231.125C335 252.019 352.037 269 373 269H455.333C472.813 269 487 254.86 487 237.438C487 220.773 474.017 207.264 457.613 206.127Z" fill="black"/>
<path d="M809.56 79.9625C803.695 50.8531 777.94 29 747 29C722.435 29 701.1 42.8375 690.475 63.0875C664.89 65.7875 645 87.3031 645 113.375C645 141.303 667.865 164 696 164H806.5C829.96 164 849 145.1 849 121.812C849 99.5375 831.575 81.4812 809.56 79.9625Z" fill="black"/>
<path d="M262.893 223.67C259.903 209.007 246.773 198 231 198C218.477 198 207.6 204.97 202.183 215.17C189.14 216.53 179 227.368 179 240.5C179 254.567 190.657 266 205 266H261.333C273.293 266 283 256.48 283 244.75C283 233.53 274.117 224.435 262.893 223.67Z" fill="black"/>
<path d="M228 31V37.8889ZM228 148.111V155ZM172.889 93H166ZM188.831 53.8306L183.222 48.2222ZM267.17 53.8306L272.778 48.2222ZM188.831 132.198L183.222 137.778ZM267.17 132.198L272.778 137.778ZM290 93H283.111Z" fill="black"/>
<path d="M228 31V37.8889M228 148.111V155M172.889 93H166M188.831 53.8306L183.222 48.2222M267.17 53.8306L272.778 48.2222M188.831 132.198L183.222 137.778M267.17 132.198L272.778 137.778M290 93H283.111" stroke="black" stroke-width="6" stroke-linecap="round" stroke-linejoin="round"/>
<circle cx="228.5" cy="93.5" r="34.5" fill="black"/>
<path d="M483.322 158.33C495.167 158.33 506.082 162.593 514.802 169.765C520.964 165.36 528.055 162.851 535.6 162.851C544.632 162.851 553.011 166.448 559.927 172.587C554.095 170.674 547.841 169.634 541.336 169.634C531.654 169.634 522.529 171.934 514.521 175.997C504.129 167.161 490.281 161.721 474.553 161.721C470.716 161.721 466.929 162.046 463.229 162.664C469.407 159.872 476.196 158.33 483.322 158.33Z" fill="black"/>
<path d="M546.1 32C558.326 32.0002 569.593 36.4014 578.594 43.8047C584.955 39.2575 592.274 36.668 600.063 36.668C609.384 36.6681 618.032 40.3798 625.171 46.7158C619.152 44.7412 612.698 43.67 605.984 43.6699C595.989 43.6699 586.57 46.0426 578.304 50.2363C567.577 41.1164 553.283 35.501 537.049 35.501C533.087 35.501 529.177 35.8355 525.358 36.4736C531.734 33.5922 538.744 32 546.1 32Z" fill="black"/>
<path d="M364.57 79.1609C374.929 79.1609 384.472 83.2128 392.098 90.0242C397.487 85.8395 403.688 83.4549 410.287 83.4548C418.184 83.4548 425.51 86.8699 431.559 92.699C426.459 90.8822 420.991 89.8962 415.303 89.8962C406.836 89.8962 398.856 92.0802 391.854 95.9382C382.766 87.5478 370.656 82.3817 356.902 82.3816C353.547 82.3816 350.235 82.6903 347 83.2771C352.402 80.6266 358.339 79.1609 364.57 79.1609Z" fill="black"/>
</g>
<mask id="mask2_672_4" style="mask-type:alpha" maskUnits="userSpaceOnUse" x="-2" y="1329" width="819" height="440">
<rect x="-2" y="1329" width="819" height="440" fill="#D9D9D9"/>
</mask>
<g mask="url(#mask2_672_4)">
<path d="M89.053 1636C89.053 1636 75.6198 1638.26 59.0491 1641.05C42.4784 1643.83 29.0452 1646.09 29.0452 1646.09C26.2588 1629.52 37.4332 1613.83 54.0039 1611.04C70.5746 1608.26 86.2666 1619.43 89.053 1636Z" fill="black"/>
<path d="M22.4604 1558.06L27.9071 1556.6L38.1392 1598.73L49.4334 1636.94L43.9868 1638.4L36.8854 1607.46L22.4604 1558.06Z" fill="black"/>
<circle cx="24.2931" cy="1590.77" r="9.51539" transform="rotate(-15 24.2931 1590.77)" fill="black"/>
<circle cx="23.7816" cy="1580.69" r="9.51539" transform="rotate(-15 23.7816 1580.69)" fill="black"/>
<circle cx="26.1936" cy="1566.54" r="12.6872" transform="rotate(-15 26.1936 1566.54)" fill="black"/>
<ellipse cx="39.5449" cy="1587.78" rx="13.0396" ry="8.45813" transform="rotate(-15 39.5449 1587.78)" fill="black"/>
<circle cx="34.261" cy="1573.5" r="11.6299" transform="rotate(-15 34.261 1573.5)" fill="black"/>
<path d="M108.001 1477.25L87.5425 1481.16L88.3803 1485.54L108.839 1481.63L115.123 1514.51L91.0117 1519.12L91.8496 1523.51L115.961 1518.9L116.52 1521.82L158.011 1551L141.629 1554.13L142.467 1558.52L163.093 1554.58L172.517 1561.2L180.459 1602.76L145.387 1609.46L146.224 1613.84L181.297 1607.14L183.391 1618.1L88.4044 1636.25L80.724 1596.07L98.2601 1592.72L97.4223 1588.33L79.8862 1591.68L71.3679 1547.11L88.904 1543.76L88.0662 1539.38L70.5301 1542.73L64.1064 1509.12L85.2961 1505.07L84.4583 1500.68L63.2686 1504.73L61.8022 1497.06L104.091 1456.79L108.001 1477.25ZM98.6236 1618.4L99.4614 1622.78L129.419 1617.06L128.581 1612.67L98.6236 1618.4ZM120.911 1588.39L161.828 1580.57L160.991 1576.18L120.073 1584L120.911 1588.39ZM89.1287 1568.71L130.045 1560.89L129.207 1556.51L88.2908 1564.33L89.1287 1568.71Z" fill="black"/>
<path d="M285.458 1609.7L193.407 1620.38L192.085 1608.98L284.136 1598.31L285.458 1609.7ZM283.831 1595.68L191.78 1606.35L188.729 1580.05L280.78 1569.38L283.831 1595.68ZM280.475 1566.75L188.424 1577.42L185.374 1551.12L277.425 1540.45L280.475 1566.75ZM277.12 1537.82L185.069 1548.49L182.019 1522.19L274.07 1511.51L277.12 1537.82ZM273.765 1508.89L181.714 1519.56L178.664 1493.26L270.715 1482.58L273.765 1508.89ZM268.87 1466.68L270.41 1479.95L178.359 1490.63L175.308 1464.33L253.016 1455.32L268.87 1466.68ZM249.814 1453.02L175.003 1461.7L171.953 1435.4L217.805 1430.08L249.814 1453.02ZM214.604 1427.79L171.648 1432.77L167.124 1393.76L214.604 1427.79Z" fill="black"/>
<path d="M807.865 1614.12L792.473 1664.31L775.741 1659.18L779.162 1648.03L784.739 1649.74L786.45 1644.16L780.872 1642.45L782.583 1636.87L788.16 1638.58L789.87 1633L784.293 1631.29L785.173 1628.42L769.93 1608.49L771.615 1603L807.865 1614.12ZM778.716 1629.58L770.164 1657.47L756.223 1653.19L761.353 1636.46L750.199 1633.04L745.069 1649.77L731.126 1645.5L739.677 1617.61L763.472 1609.66L778.716 1629.58ZM786.003 1625.72L791.581 1627.43L793.291 1621.85L787.714 1620.14L786.003 1625.72Z" fill="black"/>
<path d="M525.414 1450.01L550.518 1443.02L543.836 1603.94L294.871 1593.6L296.158 1562.6C297.057 1540.95 307.812 1520.9 325.352 1508.17C352.788 1488.26 390.478 1490.57 415.285 1513.67L437.244 1534.12L459.004 1535.02L461.799 1467.72L482.168 1462.05L487.786 1397.33L488.011 1460.42L520.679 1451.33L525.232 1398.88L525.414 1450.01ZM343.087 1567.72L342.268 1587.46L352.894 1587.9L353.714 1568.16L343.087 1567.72ZM360.292 1568.44L359.473 1588.17L370.099 1588.61L370.919 1568.88L360.292 1568.44ZM377.497 1569.15L376.678 1588.88L387.304 1589.33L388.124 1569.59L377.497 1569.15ZM474.861 1543.79L474.041 1563.53L493.776 1564.35L494.596 1544.61L474.861 1543.79ZM510.789 1545.28L509.969 1565.02L529.704 1565.84L530.524 1546.1L510.789 1545.28ZM368.486 1505.41C354.233 1504.82 342.198 1515.9 341.606 1530.15C341.014 1544.4 352.089 1556.44 366.342 1557.03C380.595 1557.62 392.629 1546.54 393.221 1532.29C393.812 1518.04 382.738 1506.01 368.486 1505.41ZM476.227 1510.9L475.407 1530.64L495.142 1531.46L495.962 1511.72L476.227 1510.9ZM512.155 1512.39L511.335 1532.13L531.07 1532.95L531.89 1513.21L512.155 1512.39ZM477.593 1478.01L476.773 1497.74L496.508 1498.56L497.327 1478.83L477.593 1478.01ZM513.521 1479.5L512.701 1499.24L532.436 1500.06L533.256 1480.32L513.521 1479.5Z" fill="black"/>
<path d="M310.525 1483.52L316.009 1488.22L322.177 1484.46L319.399 1491.13L324.884 1495.83L317.683 1495.25L314.905 1501.92L313.232 1494.89L306.031 1494.31L312.198 1490.55L310.525 1483.52Z" fill="black"/>
<path d="M335.905 1473.1L339.985 1479.06L346.916 1477.02L342.507 1482.74L346.588 1488.7L339.783 1486.28L335.374 1492L335.576 1484.78L328.771 1482.36L335.702 1480.32L335.905 1473.1Z" fill="black"/>
<path d="M363.768 1468.74L366.166 1475.55L373.389 1475.38L367.649 1479.77L370.047 1486.58L364.101 1482.48L358.361 1486.86L360.426 1479.94L354.48 1475.84L361.703 1475.66L363.768 1468.74Z" fill="black"/>
<path d="M392.938 1471.68L393.491 1478.89L400.513 1480.59L393.833 1483.34L394.386 1490.54L389.705 1485.04L383.025 1487.79L386.811 1481.64L382.13 1476.14L389.152 1477.84L392.938 1471.68Z" fill="black"/>
<path d="M420.613 1484.34L417.49 1490.85L422.721 1495.84L415.56 1494.88L412.437 1501.39L411.134 1494.29L403.973 1493.33L410.329 1489.9L409.026 1482.79L414.257 1487.77L420.613 1484.34Z" fill="black"/>
<path d="M682.765 1363.64C682.762 1363.65 660.664 1428.3 653.589 1491.66C646.523 1554.93 653.786 1622.76 653.806 1622.95L558.399 1612.3C558.467 1612.13 582.268 1551.46 589.743 1484.53C597.229 1417.5 587.358 1352.99 587.358 1352.99L682.765 1363.64ZM605.713 1563.59C606.706 1571.49 608.475 1576.28 610.937 1576.56C613.398 1576.83 616.181 1572.55 618.893 1565.06L605.713 1563.59ZM604.838 1550.61C604.924 1554.25 605.108 1557.59 605.387 1560.58L619.875 1562.2C620.805 1559.34 621.723 1556.12 622.609 1552.6L604.838 1550.61ZM604.915 1537.74C604.806 1541.21 604.763 1544.51 604.79 1547.63L623.312 1549.7C624.027 1546.67 624.715 1543.43 625.373 1540.03L604.915 1537.74ZM605.587 1524.94C605.342 1528.32 605.155 1531.61 605.023 1534.78L625.921 1537.11C626.491 1533.99 627.034 1530.74 627.542 1527.39L605.587 1524.94ZM606.739 1512.18C606.38 1515.52 606.071 1518.79 605.813 1521.99L627.972 1524.46C628.426 1521.29 628.847 1518.03 629.232 1514.7L606.739 1512.18ZM608.326 1499.48C607.873 1502.66 607.451 1505.92 607.066 1509.25L629.559 1511.76C629.918 1508.43 630.227 1505.16 630.485 1501.96L608.326 1499.48ZM610.378 1486.83C609.807 1489.95 609.264 1493.2 608.756 1496.56L630.711 1499.01C630.956 1495.63 631.143 1492.34 631.275 1489.17L610.378 1486.83ZM612.986 1474.24C612.271 1477.28 611.583 1480.52 610.925 1483.92L631.384 1486.21C631.493 1482.74 631.535 1479.43 631.508 1476.31L612.986 1474.24ZM616.424 1461.75C615.493 1464.6 614.575 1467.82 613.69 1471.35L631.46 1473.33C631.374 1469.7 631.19 1466.36 630.912 1463.37L616.424 1461.75ZM625.362 1447.39C622.9 1447.11 620.117 1451.4 617.406 1458.89L630.585 1460.36C629.592 1452.46 627.823 1447.66 625.362 1447.39ZM606.789 1384.29C616.609 1403.33 642.646 1406.24 656.425 1389.83L674.991 1367.73L593.557 1358.63L606.789 1384.29Z" fill="black"/>
<path d="M727.985 1604.54C731.487 1589.68 713.386 1591.62 713.386 1591.62C718.577 1593.01 723.242 1600.09 723.242 1600.09C708.894 1593.06 704.323 1599.79 704.323 1599.79L711.134 1600.02C715.804 1600.21 718.149 1601.68 719.096 1603.74C714.754 1604.6 708.347 1607.61 701.951 1616.86C701.518 1600.82 696.113 1592.82 691.725 1588.99C693.96 1587.41 697.309 1587.28 702.313 1589.92L709.589 1593.79C709.589 1593.79 708.866 1583.98 689.589 1582.66C689.589 1582.66 698.761 1578.07 705.038 1579.75C705.038 1579.75 687.248 1566.77 681.929 1584.45C681.929 1584.45 663.907 1596.29 676.159 1605.99C676.159 1605.99 676.589 1592.4 684.421 1590.89C684.421 1590.89 679.714 1606.94 687.979 1609.16C688.008 1609.36 686.015 1596.87 689.894 1590.93C702.037 1611.02 690.243 1631.38 690.243 1631.38L693.946 1632.37L700.757 1634.19L702.64 1634.7C702.64 1634.7 702.615 1615.24 719.612 1605.88C719.93 1611.74 713.34 1619.86 713.446 1619.72C720.282 1621.55 723.544 1608.12 723.544 1608.12C728.528 1612.44 723.216 1622.34 723.216 1622.34C736.001 1620.46 727.985 1604.54 727.985 1604.54Z" fill="black"/>
<mask id="mask3_672_4" style="mask-type:alpha" maskUnits="userSpaceOnUse" x="-178" y="1551" width="1124" height="238">
<rect x="-178" y="1551" width="1124" height="238" fill="#D9D9D9"/>
</mask>
<g mask="url(#mask3_672_4)">
<path d="M384 1590C521.034 1590 653.685 1612.7 779.529 1655.15C779.433 1655.32 779.336 1655.48 779.241 1655.65C780.361 1655.8 781.473 1655.98 782.576 1656.18C797.74 1661.34 812.805 1666.79 827.766 1672.52C825.541 1674.1 823.618 1676.07 822.102 1678.35C823.097 1679.45 824.057 1680.58 824.981 1681.75C826.785 1678.6 829.513 1676.04 832.795 1674.45C1424.86 1903.97 1853.46 2575.42 1853.46 3368C1853.46 4349.96 1195.56 5146 384 5146C-427.563 5146 -1085.46 4349.96 -1085.46 3368C-1085.46 2386.04 -427.563 1590 384 1590ZM70.6973 1747.07C31.839 1747.07 0.303708 1778.42 0.00292969 1817.21L0 1817.21V1817.25H4.00391C4.28333 1780.65 34.0348 1751.07 70.6973 1751.07C107.36 1751.07 137.112 1780.65 137.392 1817.25H141.393C141.115 1778.74 110.063 1747.56 71.6113 1747.07L70.6973 1747.07ZM70.6982 1773.96C46.6808 1773.96 27.182 1793.29 26.9033 1817.25H30.9033C31.1817 1795.5 48.8899 1777.96 70.6982 1777.96C92.5065 1777.96 110.215 1795.5 110.493 1817.25H114.493C114.219 1793.67 95.325 1774.57 71.8291 1773.98L70.6982 1773.96ZM70.6973 1795.48C58.5634 1795.48 48.6943 1805.18 48.418 1817.25H52.4199C52.6952 1807.39 60.7726 1799.48 70.6973 1799.48C80.622 1799.48 88.6993 1807.39 88.9746 1817.25H92.9766C92.7046 1805.37 83.1416 1795.79 71.2725 1795.49L70.6973 1795.48ZM212.093 1747.07C173.221 1747.07 141.678 1778.44 141.398 1817.25H145.399C145.679 1780.65 175.43 1751.07 212.093 1751.07C248.755 1751.07 278.508 1780.65 278.787 1817.25H282.788C282.511 1778.74 251.458 1747.56 213.007 1747.07L212.093 1747.07ZM212.094 1773.96C188.076 1773.96 168.577 1793.29 168.299 1817.25H172.299C172.577 1795.5 190.285 1777.96 212.094 1777.96C233.902 1777.96 251.61 1795.5 251.889 1817.25H255.889C255.614 1793.67 236.72 1774.57 213.225 1773.98L212.094 1773.96ZM212.094 1795.48C199.96 1795.48 190.091 1805.18 189.814 1817.25H193.816C194.092 1807.39 202.169 1799.48 212.094 1799.48C222.018 1799.48 230.096 1807.39 230.371 1817.25H234.373C234.101 1805.37 224.538 1795.79 212.669 1795.49L212.094 1795.48ZM490.697 1747.07C457.564 1747.07 429.754 1769.86 422.093 1800.62C414.502 1770.15 387.133 1747.49 354.402 1747.07L353.488 1747.07C314.617 1747.07 283.073 1778.44 282.794 1817.25H286.795C287.074 1780.65 316.826 1751.07 353.488 1751.07C389.132 1751.07 418.241 1779.03 420.089 1814.21C420.04 1815.2 420.011 1816.2 420.003 1817.21L420 1817.21V1817.25H424.184C424.176 1816.23 424.145 1815.22 424.096 1814.22C425.94 1779.03 455.052 1751.07 490.697 1751.07C527.36 1751.07 557.112 1780.65 557.392 1817.25H561.393C561.115 1778.74 530.063 1747.56 491.611 1747.07L490.697 1747.07ZM353.488 1773.96C329.471 1773.96 309.972 1793.29 309.693 1817.25H313.693C313.972 1795.5 331.68 1777.96 353.488 1777.96C375.297 1777.96 393.005 1795.5 393.283 1817.25H397.283C397.009 1793.67 378.115 1774.57 354.619 1773.98L353.488 1773.96ZM353.488 1795.48C341.354 1795.48 331.485 1805.18 331.209 1817.25H335.211C335.486 1807.39 343.564 1799.48 353.488 1799.48C363.413 1799.48 371.49 1807.39 371.766 1817.25H375.768C375.496 1805.37 365.933 1795.79 354.063 1795.49L353.488 1795.48ZM490.698 1773.96C466.681 1773.96 447.182 1793.29 446.903 1817.25H450.903C451.182 1795.5 468.89 1777.96 490.698 1777.96C512.507 1777.96 530.215 1795.5 530.493 1817.25H534.493C534.219 1793.67 515.325 1774.57 491.829 1773.98L490.698 1773.96ZM490.697 1795.48C478.563 1795.48 468.694 1805.18 468.418 1817.25H472.42C472.695 1807.39 480.773 1799.48 490.697 1799.48C500.622 1799.48 508.699 1807.39 508.975 1817.25H512.977C512.705 1805.37 503.142 1795.79 491.272 1795.49L490.697 1795.48ZM632.093 1747.07C593.221 1747.07 561.678 1778.44 561.398 1817.25H565.399C565.679 1780.65 595.43 1751.07 632.093 1751.07C668.755 1751.07 698.508 1780.65 698.787 1817.25H702.788C702.511 1778.74 671.458 1747.56 633.007 1747.07L632.093 1747.07ZM632.094 1773.96C608.076 1773.96 588.577 1793.29 588.299 1817.25H592.299C592.577 1795.5 610.285 1777.96 632.094 1777.96C653.902 1777.96 671.61 1795.5 671.889 1817.25H675.889C675.614 1793.67 656.72 1774.57 633.225 1773.98L632.094 1773.96ZM632.094 1795.48C619.96 1795.48 610.091 1805.18 609.814 1817.25H613.816C614.092 1807.39 622.169 1799.48 632.094 1799.48C642.018 1799.48 650.096 1807.39 650.371 1817.25H654.373C654.101 1805.37 644.538 1795.79 632.669 1795.49L632.094 1795.48ZM773.488 1747.07C734.617 1747.07 703.073 1778.44 702.794 1817.25H706.795C707.074 1780.65 736.826 1751.07 773.488 1751.07C810.151 1751.07 839.903 1780.65 840.183 1817.25H844.184C843.906 1778.74 812.854 1747.56 774.402 1747.07L773.488 1747.07ZM773.488 1773.96C749.471 1773.96 729.972 1793.29 729.693 1817.25H733.693C733.972 1795.5 751.68 1777.96 773.488 1777.96C795.297 1777.96 813.005 1795.5 813.283 1817.25H817.283C817.009 1793.67 798.115 1774.57 774.619 1773.98L773.488 1773.96ZM773.488 1795.48C761.354 1795.48 751.485 1805.18 751.209 1817.25H755.211C755.486 1807.39 763.564 1799.48 773.488 1799.48C783.413 1799.48 791.49 1807.39 791.766 1817.25H795.768C795.496 1805.37 785.933 1795.79 774.063 1795.49L773.488 1795.48ZM283.498 1755.37C275.591 1755.37 268.646 1759.49 264.69 1765.7C265.702 1766.79 266.68 1767.92 267.622 1769.07C270.675 1763.44 276.64 1759.61 283.498 1759.61C289.994 1759.61 295.689 1763.05 298.866 1768.2C299.791 1767.05 300.752 1765.94 301.745 1764.86C297.816 1759.27 291.382 1755.56 284.073 1755.38L283.498 1755.37ZM703.498 1755.37C695.591 1755.37 688.646 1759.49 684.69 1765.7C685.702 1766.79 686.68 1767.92 687.622 1769.07C690.675 1763.44 696.64 1759.61 703.498 1759.61C709.994 1759.61 715.689 1763.05 718.866 1768.2C719.791 1767.05 720.752 1765.94 721.745 1764.86C717.816 1759.27 711.382 1755.56 704.073 1755.38L703.498 1755.37ZM142.104 1755.37C134.557 1755.37 127.887 1759.12 123.855 1764.86C124.848 1765.94 125.809 1767.06 126.733 1768.2C129.91 1763.05 135.606 1759.61 142.104 1759.61C148.96 1759.61 154.923 1763.44 157.977 1769.07C158.919 1767.91 159.897 1766.79 160.909 1765.7C157.049 1759.64 150.345 1755.57 142.678 1755.38L142.104 1755.37ZM562.104 1755.37C554.557 1755.37 547.887 1759.12 543.855 1764.86C544.848 1765.94 545.809 1767.06 546.733 1768.2C549.91 1763.05 555.606 1759.61 562.104 1759.61C568.96 1759.61 574.923 1763.44 577.977 1769.07C578.919 1767.91 579.897 1766.79 580.909 1765.7C577.049 1759.64 570.345 1755.57 562.678 1755.38L562.104 1755.37ZM420 1755.38V1755.91C414.327 1757.18 409.471 1760.62 406.344 1765.3C407.339 1766.41 408.299 1767.54 409.224 1768.71C412.005 1763.85 416.982 1760.41 422.803 1759.73C428.62 1760.41 433.595 1763.85 436.376 1768.7C437.301 1767.54 438.262 1766.41 439.257 1765.3C435.873 1760.23 430.464 1756.63 424.187 1755.64V1755.38C423.716 1755.4 423.25 1755.42 422.787 1755.47C422.29 1755.42 421.788 1755.39 421.282 1755.38L420.707 1755.37C420.47 1755.37 420.235 1755.37 420 1755.38ZM844.187 1755.38C836.741 1755.61 830.217 1759.5 826.344 1765.3C827.339 1766.41 828.299 1767.54 829.224 1768.71C832.223 1763.46 837.776 1759.87 844.187 1759.63V1755.38ZM0 1755.38V1759.63C0.234549 1759.62 0.470254 1759.61 0.707031 1759.61C7.41402 1759.61 13.2661 1763.27 16.376 1768.7C17.3009 1767.54 18.2617 1766.41 19.2568 1765.3C15.3607 1759.46 8.78221 1755.57 1.28223 1755.38L0.707031 1755.37C0.470466 1755.37 0.234785 1755.37 0 1755.38ZM142.103 1733.85C127.77 1733.85 115.044 1740.74 107.053 1751.38C108.285 1752.09 109.495 1752.84 110.68 1753.62C117.91 1744.18 129.295 1738.1 142.103 1738.1C155.299 1738.1 166.983 1744.56 174.17 1754.49C175.355 1753.72 176.566 1752.98 177.799 1752.27C170.062 1741.41 157.496 1734.23 143.232 1733.87L142.103 1733.85ZM283.497 1733.85C268.769 1733.85 255.739 1741.12 247.798 1752.27C249.032 1752.97 250.243 1753.72 251.429 1754.49C258.616 1744.56 270.301 1738.1 283.497 1738.1C296.305 1738.1 307.689 1744.18 314.919 1753.62C316.102 1752.84 317.311 1752.09 318.543 1751.38C310.763 1741.02 298.497 1734.22 284.627 1733.87L283.497 1733.85ZM562.103 1733.85C547.77 1733.85 535.044 1740.74 527.053 1751.38C528.285 1752.09 529.495 1752.84 530.68 1753.62C537.91 1744.18 549.295 1738.1 562.103 1738.1C575.299 1738.1 586.983 1744.56 594.17 1754.49C595.355 1753.72 596.566 1752.98 597.799 1752.27C590.062 1741.41 577.496 1734.23 563.232 1733.87L562.103 1733.85ZM703.497 1733.85C688.769 1733.85 675.739 1741.12 667.798 1752.27C669.032 1752.97 670.243 1753.72 671.429 1754.49C678.616 1744.56 690.301 1738.1 703.497 1738.1C716.305 1738.1 727.689 1744.18 734.919 1753.62C736.102 1752.84 737.311 1752.09 738.543 1751.38C730.763 1741.02 718.497 1734.22 704.627 1733.87L703.497 1733.85ZM0 1733.86V1738.1C0.235186 1738.1 0.470861 1738.1 0.707031 1738.1C13.6559 1738.1 25.1506 1744.32 32.3672 1753.94C33.5431 1753.15 34.7442 1752.39 35.9688 1751.67C28.2006 1741.15 15.8353 1734.22 1.83691 1733.87L0.707031 1733.85C0.470911 1733.85 0.235232 1733.86 0 1733.86ZM420 1733.86V1734.12C407.562 1735.51 396.696 1742.1 389.632 1751.67C390.856 1752.39 392.056 1753.15 393.231 1753.94C400.057 1744.84 410.712 1738.78 422.803 1738.15C434.891 1738.78 445.542 1744.84 452.367 1753.94C453.543 1753.15 454.744 1752.39 455.969 1751.67C448.638 1741.74 437.214 1735.01 424.187 1733.99V1733.86C423.717 1733.87 423.248 1733.88 422.782 1733.9C422.468 1733.89 422.153 1733.88 421.837 1733.87L420.707 1733.85C420.471 1733.85 420.235 1733.86 420 1733.86ZM844.187 1733.86C830.015 1734.08 817.478 1741.04 809.632 1751.67C810.856 1752.39 812.056 1753.15 813.231 1753.94C820.317 1744.49 831.526 1738.32 844.187 1738.1V1733.86ZM142.103 1706.96C115.847 1706.96 92.9339 1721.27 80.7402 1742.52C82.256 1742.71 83.7569 1742.95 85.2412 1743.24C96.8915 1724.03 117.999 1711.2 142.103 1711.2C166.627 1711.2 188.048 1724.49 199.563 1744.25C201.041 1743.97 202.535 1743.74 204.043 1743.55C192.143 1721.98 169.31 1707.3 143.016 1706.96L142.103 1706.96ZM283.498 1706.96C256.82 1706.96 233.594 1721.74 221.557 1743.55C223.065 1743.74 224.558 1743.97 226.035 1744.25C237.551 1724.48 258.973 1711.2 283.498 1711.2C307.602 1711.2 328.707 1724.03 340.357 1743.24C341.842 1742.95 343.343 1742.71 344.858 1742.52C332.807 1721.52 310.285 1707.29 284.412 1706.96L283.498 1706.96ZM562.103 1706.96C535.847 1706.96 512.934 1721.27 500.74 1742.52C502.256 1742.71 503.757 1742.95 505.241 1743.24C516.891 1724.03 537.999 1711.2 562.103 1711.2C586.627 1711.2 608.048 1724.49 619.563 1744.25C621.041 1743.97 622.535 1743.74 624.043 1743.55C612.143 1721.98 589.31 1707.3 563.016 1706.96L562.103 1706.96ZM703.498 1706.96C676.82 1706.96 653.594 1721.74 641.557 1743.55C643.065 1743.74 644.558 1743.97 646.035 1744.25C657.551 1724.48 678.973 1711.2 703.498 1711.2C727.602 1711.2 748.707 1724.03 760.357 1743.24C761.842 1742.95 763.343 1742.71 764.858 1742.52C752.807 1721.52 730.285 1707.29 704.412 1706.96L703.498 1706.96ZM0 1706.96V1711.21C0.235394 1711.2 0.471058 1711.2 0.707031 1711.2C24.8624 1711.2 46.0073 1724.09 57.6416 1743.36C59.117 1743.06 60.61 1742.81 62.1172 1742.61C50.0777 1721.56 27.529 1707.29 1.62109 1706.96L0.707031 1706.96C0.471074 1706.96 0.235411 1706.96 0 1706.96ZM420 1706.96V1707.13C395.774 1708.78 374.901 1722.64 363.482 1742.61C364.99 1742.81 366.483 1743.06 367.958 1743.36C379.262 1724.63 399.546 1711.94 422.845 1711.23C446.106 1711.97 466.352 1724.66 477.642 1743.36C479.117 1743.06 480.61 1742.81 482.117 1742.61C470.477 1722.25 449.013 1708.25 424.187 1707.04V1706.96C423.742 1706.97 423.299 1706.98 422.857 1706.99C422.446 1706.98 422.034 1706.97 421.621 1706.96L420.707 1706.96C420.471 1706.96 420.235 1706.96 420 1706.96ZM844.187 1706.96C818.192 1707.22 795.554 1721.5 783.482 1742.61C784.99 1742.81 786.483 1743.06 787.958 1743.36C799.479 1724.28 820.326 1711.45 844.187 1711.21V1706.96ZM350.662 1710.83C342.923 1710.83 336.107 1714.78 332.111 1720.76C333.106 1721.87 334.067 1723 334.991 1724.17C338.101 1718.73 343.954 1715.07 350.662 1715.07C357.625 1715.07 363.666 1719.02 366.675 1724.79C367.618 1723.63 368.597 1722.49 369.611 1721.38C365.776 1715.2 358.999 1711.03 351.236 1710.84L350.662 1710.83ZM770.662 1710.83C762.923 1710.83 756.107 1714.78 752.111 1720.76C753.106 1721.87 754.067 1723 754.991 1724.17C758.101 1718.73 763.954 1715.07 770.662 1715.07C777.625 1715.07 783.666 1719.02 786.675 1724.79C787.618 1723.63 788.597 1722.49 789.611 1721.38C785.776 1715.2 778.999 1711.03 771.236 1710.84L770.662 1710.83ZM209.266 1710.83C201.359 1710.83 194.414 1714.95 190.458 1721.16C191.47 1722.25 192.447 1723.38 193.39 1724.53C196.442 1718.9 202.408 1715.07 209.266 1715.07C215.762 1715.07 221.456 1718.51 224.634 1723.66C225.559 1722.52 226.519 1721.4 227.513 1720.32C223.584 1714.73 217.15 1711.02 209.841 1710.84L209.266 1710.83ZM629.266 1710.83C621.359 1710.83 614.414 1714.95 610.458 1721.16C611.47 1722.25 612.447 1723.38 613.39 1724.53C616.442 1718.9 622.408 1715.07 629.266 1715.07C635.762 1715.07 641.456 1718.51 644.634 1723.66C645.559 1722.52 646.519 1721.4 647.513 1720.32C643.584 1714.73 637.15 1711.02 629.841 1710.84L629.266 1710.83ZM67.8711 1710.83C60.3249 1710.83 53.6547 1714.58 49.623 1720.32C50.6162 1721.4 51.576 1722.52 52.501 1723.66C55.678 1718.51 61.3739 1715.07 67.8711 1715.07C74.7275 1715.07 80.6909 1718.9 83.7441 1724.53C84.6863 1723.37 85.6646 1722.25 86.6768 1721.16C82.8168 1715.1 76.1123 1711.03 68.4453 1710.84L67.8711 1710.83ZM487.871 1710.83C480.325 1710.83 473.655 1714.58 469.623 1720.32C470.616 1721.4 471.576 1722.52 472.501 1723.66C475.678 1718.51 481.374 1715.07 487.871 1715.07C494.727 1715.07 500.691 1718.9 503.744 1724.53C504.686 1723.37 505.665 1722.25 506.677 1721.16C502.817 1715.1 496.112 1711.03 488.445 1710.84L487.871 1710.83ZM350.661 1689.31C336.2 1689.31 323.376 1696.32 315.399 1707.13C316.623 1707.85 317.824 1708.61 318.999 1709.4C326.216 1699.78 337.712 1693.56 350.661 1693.56C363.927 1693.56 375.667 1700.09 382.844 1710.11C384.025 1709.33 385.231 1708.58 386.461 1707.88C378.733 1696.93 366.118 1689.69 351.791 1689.33L350.661 1689.31ZM770.661 1689.31C756.2 1689.31 743.376 1696.32 735.399 1707.13C736.623 1707.85 737.824 1708.61 738.999 1709.4C746.216 1699.78 757.712 1693.56 770.661 1693.56C783.927 1693.56 795.667 1700.09 802.844 1710.11C804.025 1709.33 805.231 1708.58 806.461 1707.88C798.733 1696.93 786.118 1689.69 771.791 1689.33L770.661 1689.31ZM67.8701 1689.31C53.537 1689.31 40.8114 1696.2 32.8203 1706.84C34.053 1707.55 35.263 1708.3 36.4473 1709.08C43.6774 1699.64 55.0623 1693.56 67.8701 1693.56C81.066 1693.56 92.7508 1700.02 99.9375 1709.95C101.123 1709.18 102.333 1708.44 103.566 1707.73C95.8297 1696.87 83.2634 1689.69 69 1689.33L67.8701 1689.31ZM209.265 1689.31C194.536 1689.31 181.506 1696.58 173.565 1707.73C174.799 1708.44 176.01 1709.18 177.196 1709.95C184.383 1700.02 196.069 1693.56 209.265 1693.56C222.073 1693.56 233.457 1699.65 240.687 1709.08C241.87 1708.3 243.079 1707.55 244.311 1706.84C236.53 1696.48 224.265 1689.68 210.395 1689.33L209.265 1689.31ZM487.87 1689.31C473.537 1689.31 460.811 1696.2 452.82 1706.84C454.053 1707.55 455.263 1708.3 456.447 1709.08C463.677 1699.64 475.062 1693.56 487.87 1693.56C501.066 1693.56 512.751 1700.02 519.938 1709.95C521.123 1709.18 522.333 1708.44 523.566 1707.73C515.83 1696.87 503.263 1689.69 489 1689.33L487.87 1689.31ZM629.265 1689.31C614.536 1689.31 601.506 1696.58 593.565 1707.73C594.799 1708.44 596.01 1709.18 597.196 1709.95C604.383 1700.02 616.069 1693.56 629.265 1693.56C642.073 1693.56 653.457 1699.65 660.687 1709.08C661.87 1708.3 663.079 1707.55 664.311 1706.84C656.53 1696.48 644.265 1689.68 630.395 1689.33L629.265 1689.31ZM350.661 1662.42C324.37 1662.42 301.431 1676.77 289.25 1698.07C290.757 1698.27 292.25 1698.52 293.726 1698.82C305.36 1679.55 326.505 1666.66 350.661 1666.66C375.211 1666.66 396.65 1679.97 408.157 1699.77C409.631 1699.49 411.121 1699.24 412.625 1699.05C400.732 1677.46 377.885 1662.76 351.574 1662.42L350.661 1662.42ZM770.661 1662.42C744.37 1662.42 721.431 1676.77 709.25 1698.07C710.757 1698.27 712.25 1698.52 713.726 1698.82C725.36 1679.55 746.505 1666.66 770.661 1666.66C795.211 1666.66 816.65 1679.97 828.157 1699.77C829.631 1699.49 831.121 1699.24 832.625 1699.05C820.732 1677.46 797.885 1662.76 771.574 1662.42L770.661 1662.42ZM67.8701 1662.42C41.6147 1662.42 18.7014 1676.73 6.50781 1697.98C8.02362 1698.17 9.5245 1698.41 11.0088 1698.7C22.659 1679.49 43.7663 1666.66 67.8701 1666.66C92.3946 1666.66 113.816 1679.95 125.331 1699.71C126.808 1699.43 128.302 1699.2 129.811 1699.01C117.911 1677.45 95.0773 1662.76 68.7832 1662.42L67.8701 1662.42ZM209.266 1662.42C182.587 1662.42 159.361 1677.2 147.324 1699.01C148.832 1699.2 150.326 1699.43 151.803 1699.71C163.318 1679.95 184.741 1666.66 209.266 1666.66C233.369 1666.66 254.475 1679.49 266.125 1698.7C267.609 1698.41 269.11 1698.17 270.626 1697.98C258.574 1676.98 236.052 1662.75 210.18 1662.42L209.266 1662.42ZM487.87 1662.42C461.615 1662.42 438.701 1676.73 426.508 1697.98C428.024 1698.17 429.525 1698.41 431.009 1698.7C442.659 1679.49 463.766 1666.66 487.87 1666.66C512.395 1666.66 533.816 1679.95 545.331 1699.71C546.808 1699.43 548.302 1699.2 549.811 1699.01C537.911 1677.45 515.077 1662.76 488.783 1662.42L487.87 1662.42ZM629.266 1662.42C602.587 1662.42 579.361 1677.2 567.324 1699.01C568.832 1699.2 570.326 1699.43 571.803 1699.71C583.318 1679.95 604.741 1666.66 629.266 1666.66C653.369 1666.66 674.475 1679.49 686.125 1698.7C687.609 1698.41 689.11 1698.17 690.626 1697.98C678.574 1676.98 656.052 1662.75 630.18 1662.42L629.266 1662.42ZM279.257 1668.41C271.35 1668.41 264.405 1672.53 260.449 1678.74C261.461 1679.83 262.439 1680.96 263.381 1682.11C266.433 1676.48 272.399 1672.65 279.257 1672.65C285.753 1672.65 291.447 1676.09 294.624 1681.24C295.549 1680.1 296.51 1678.98 297.503 1677.9C293.574 1672.31 287.14 1668.61 279.831 1668.42L279.257 1668.41ZM699.257 1668.41C691.35 1668.41 684.405 1672.53 680.449 1678.74C681.461 1679.83 682.439 1680.96 683.381 1682.11C686.433 1676.48 692.399 1672.65 699.257 1672.65C705.753 1672.65 711.447 1676.09 714.624 1681.24C715.549 1680.1 716.51 1678.98 717.503 1677.9C713.574 1672.31 707.14 1668.61 699.831 1668.42L699.257 1668.41ZM137.861 1668.41C130.315 1668.41 123.646 1672.16 119.614 1677.9C120.607 1678.98 121.567 1680.1 122.492 1681.24C125.669 1676.09 131.364 1672.65 137.861 1672.65C144.718 1672.65 150.681 1676.48 153.734 1682.11C154.677 1680.96 155.655 1679.83 156.667 1678.74C152.807 1672.68 146.103 1668.61 138.437 1668.42L137.861 1668.41ZM557.861 1668.41C550.315 1668.41 543.646 1672.16 539.614 1677.9C540.607 1678.98 541.567 1680.1 542.492 1681.24C545.669 1676.09 551.364 1672.65 557.861 1672.65C564.718 1672.65 570.681 1676.48 573.734 1682.11C574.677 1680.96 575.655 1679.83 576.667 1678.74C572.807 1672.68 566.103 1668.61 558.437 1668.42L557.861 1668.41ZM420.652 1668.41C412.914 1668.41 406.097 1672.36 402.102 1678.35C403.097 1679.45 404.057 1680.58 404.981 1681.75C407.99 1676.49 413.566 1672.89 420 1672.67V1673C425.194 1674.03 429.586 1677.29 432.135 1681.75C433.06 1680.58 434.021 1679.45 435.016 1678.34C432.422 1674.46 428.639 1671.43 424.187 1669.79V1668.69C423.219 1668.54 422.232 1668.45 421.228 1668.42L420.652 1668.41ZM137.86 1646.9C123.527 1646.9 110.803 1653.78 102.812 1664.42C104.044 1665.13 105.254 1665.88 106.438 1666.66C113.669 1657.23 125.053 1651.14 137.86 1651.14C151.056 1651.14 162.742 1657.6 169.929 1667.53C171.114 1666.76 172.324 1666.02 173.557 1665.31C165.82 1654.45 153.254 1647.27 138.99 1646.91L137.86 1646.9ZM279.256 1646.9C264.527 1646.9 251.496 1654.17 243.556 1665.31C244.789 1666.02 246.001 1666.76 247.187 1667.53C254.374 1657.6 266.06 1651.14 279.256 1651.14C292.064 1651.14 303.447 1657.23 310.677 1666.67C311.861 1665.88 313.07 1665.14 314.302 1664.42C306.522 1654.06 294.256 1647.26 280.386 1646.91L279.256 1646.9ZM557.86 1646.9C543.527 1646.9 530.803 1653.78 522.812 1664.42C524.044 1665.13 525.254 1665.88 526.438 1666.66C533.669 1657.23 545.053 1651.14 557.86 1651.14C571.056 1651.14 582.742 1657.6 589.929 1667.53C591.114 1666.76 592.324 1666.02 593.557 1665.31C585.82 1654.45 573.254 1647.27 558.99 1646.91L557.86 1646.9ZM420.651 1646.9C406.19 1646.9 393.367 1653.91 385.391 1664.71C386.615 1665.43 387.815 1666.19 388.99 1666.98C396.086 1657.52 407.317 1651.35 420 1651.14V1651.29C431.493 1652.31 441.572 1658.24 448.125 1666.98C449.301 1666.19 450.503 1665.43 451.728 1664.71C445.204 1655.87 435.439 1649.58 424.187 1647.57V1647.04C423.391 1646.97 422.589 1646.93 421.781 1646.91L420.651 1646.9ZM279.257 1620C252.579 1620 229.352 1634.78 217.314 1656.59C218.823 1656.78 220.317 1657.01 221.794 1657.29C233.31 1637.53 254.732 1624.24 279.257 1624.24C303.36 1624.24 324.466 1637.07 336.116 1656.28C337.6 1655.99 339.101 1655.75 340.616 1655.56C328.564 1634.56 306.043 1620.33 280.17 1620.01L279.257 1620ZM557.86 1620C531.605 1620 508.693 1634.31 496.499 1655.56C498.015 1655.75 499.515 1655.99 500.999 1656.28C512.649 1637.07 533.757 1624.24 557.86 1624.24C582.385 1624.24 603.806 1637.53 615.321 1657.29C616.799 1657.01 618.293 1656.78 619.802 1656.59C607.902 1635.03 585.068 1620.34 558.774 1620.01L557.86 1620ZM420.651 1620C394.36 1620 371.422 1634.35 359.241 1655.65C360.748 1655.85 362.24 1656.11 363.716 1656.4C375.246 1637.3 396.116 1624.48 420 1624.25V1624.33C442.674 1625.52 462.337 1638.08 473.4 1656.4C474.876 1656.11 476.368 1655.85 477.875 1655.65C466.903 1636.47 447.203 1622.92 424.187 1620.42V1620.09C423.317 1620.05 422.443 1620.02 421.565 1620.01L420.651 1620Z" fill="black"/>
</g>
</g>
</g>
</svg>
