<svg width="817" height="440" viewBox="0 0 817 440" fill="none" xmlns="http://www.w3.org/2000/svg">
<mask id="mask0_554_1446" style="mask-type:alpha" maskUnits="userSpaceOnUse" x="-2" y="0" width="819" height="440">
<rect x="-2" width="819" height="440" fill="#D9D9D9"/>
</mask>
<g mask="url(#mask0_554_1446)">
<path d="M89.053 307.004C89.053 307.004 75.6198 309.263 59.0491 312.049C42.4784 314.835 29.0452 317.094 29.0452 317.094C26.2588 300.524 37.4332 284.832 54.0039 282.045C70.5746 279.259 86.2666 290.433 89.053 307.004Z" fill="black"/>
<path d="M22.4604 229.059L27.9071 227.6L38.1392 269.735L49.4334 307.937L43.9868 309.397L36.8854 278.463L22.4604 229.059Z" fill="black"/>
<circle cx="24.2931" cy="261.77" r="9.51539" transform="rotate(-15 24.2931 261.77)" fill="black"/>
<circle cx="23.7816" cy="251.691" r="9.51539" transform="rotate(-15 23.7816 251.691)" fill="black"/>
<circle cx="26.1936" cy="237.545" r="12.6872" transform="rotate(-15 26.1936 237.545)" fill="black"/>
<ellipse cx="39.5449" cy="258.778" rx="13.0396" ry="8.45813" transform="rotate(-15 39.5449 258.778)" fill="black"/>
<circle cx="34.261" cy="244.505" r="11.6299" transform="rotate(-15 34.261 244.505)" fill="black"/>
<path d="M108.001 148.251L87.5425 152.161L88.3803 156.545L108.839 152.634L115.123 185.515L91.0117 190.123L91.8496 194.508L115.961 189.899L116.52 192.822L158.011 222.002L141.629 225.133L142.467 229.518L163.093 225.576L172.517 232.204L180.459 273.757L145.387 280.46L146.224 284.844L181.297 278.141L183.391 289.101L88.4044 307.254L80.724 267.068L98.2601 263.716L97.4223 259.333L79.8862 262.684L71.3679 218.113L88.904 214.761L88.0662 210.378L70.5301 213.729L64.1064 180.118L85.2961 176.068L84.4583 171.685L63.2686 175.734L61.8022 168.062L104.091 127.792L108.001 148.251ZM98.6236 289.397L99.4614 293.781L129.419 288.056L128.581 283.672L98.6236 289.397ZM120.911 259.387L161.828 251.567L160.991 247.184L120.073 255.004L120.911 259.387ZM89.1287 239.712L130.045 231.892L129.207 227.507L88.2908 235.327L89.1287 239.712Z" fill="black"/>
<path d="M285.458 280.703L193.407 291.378L192.085 279.981L284.136 269.305L285.458 280.703ZM283.831 266.675L191.78 277.351L188.729 251.051L280.78 240.375L283.831 266.675ZM280.475 237.745L188.424 248.421L185.374 222.121L277.425 211.445L280.475 237.745ZM277.12 208.815L185.069 219.491L182.019 193.191L274.07 182.515L277.12 208.815ZM273.765 179.885L181.714 190.561L178.664 164.26L270.715 153.584L273.765 179.885ZM268.87 137.681L270.41 150.954L178.359 161.63L175.308 135.331L253.016 126.318L268.87 137.681ZM249.814 124.023L175.003 132.7L171.953 106.4L217.805 101.082L249.814 124.023ZM214.604 98.7878L171.648 103.77L167.124 64.7578L214.604 98.7878Z" fill="black"/>
<path d="M686.381 36.6041C686.381 36.6041 661.176 102.277 651.477 167.193C641.785 232.067 646.682 302.192 646.688 302.28L548.939 287.676C548.982 287.578 575.813 226.04 586.065 157.42C596.325 88.7448 588.632 22 588.632 22L686.381 36.6041ZM594.795 28.0453L607.994 56.1499C617.101 75.5414 643.013 79.4127 657.39 63.5298L678.227 40.5104L594.795 28.0453Z" fill="black"/>
<ellipse cx="632.703" cy="286.817" rx="40.3062" ry="33.5" transform="rotate(23.4973 632.703 286.817)" fill="black"/>
<path d="M807.865 285.117L792.473 335.311L775.741 330.18L779.162 319.026L784.739 320.736L786.45 315.159L780.872 313.449L782.583 307.872L788.16 309.582L789.87 304.005L784.293 302.295L785.173 299.422L769.93 279.495L771.615 274.001L807.865 285.117ZM778.716 300.584L770.164 328.47L756.223 324.194L761.353 307.463L750.199 304.042L745.069 320.774L731.126 316.498L739.677 288.613L763.472 280.656L778.716 300.584ZM786.003 296.718L791.581 298.428L793.291 292.851L787.714 291.14L786.003 296.718Z" fill="black"/>
<path d="M525.414 121.009L550.518 114.02L543.836 274.937L294.871 264.598L296.158 233.6C297.057 211.949 307.812 191.898 325.352 179.171C352.788 159.264 390.478 161.569 415.285 184.67L437.244 205.12L459.004 206.024L461.799 138.723L482.168 133.05L487.786 68.3291L488.011 131.424L520.679 122.327L525.232 69.8841L525.414 121.009ZM343.087 238.721L342.268 258.456L352.894 258.897L353.714 239.162L343.087 238.721ZM360.292 239.435L359.473 259.17L370.099 259.612L370.919 239.877L360.292 239.435ZM377.497 240.15L376.678 259.885L387.304 260.326L388.124 240.591L377.497 240.15ZM474.861 214.793L474.041 234.528L493.776 235.347L494.596 215.612L474.861 214.793ZM510.789 216.285L509.969 236.02L529.704 236.839L530.524 217.104L510.789 216.285ZM368.486 176.414C354.233 175.822 342.198 186.896 341.606 201.149C341.014 215.401 352.089 227.436 366.342 228.028C380.595 228.62 392.629 217.545 393.221 203.292C393.812 189.039 382.738 177.006 368.486 176.414ZM476.227 181.901L475.407 201.636L495.142 202.456L495.962 182.721L476.227 181.901ZM512.155 183.393L511.335 203.128L531.07 203.948L531.89 184.213L512.155 183.393ZM477.593 149.01L476.773 168.745L496.508 169.564L497.327 149.829L477.593 149.01ZM513.521 150.502L512.701 170.237L532.436 171.056L533.256 151.321L513.521 150.502Z" fill="black"/>
<path d="M310.524 154.522L316.009 159.224L322.176 155.461L319.399 162.13L324.884 166.833L317.682 166.252L314.905 172.922L313.232 165.894L306.031 165.313L312.198 161.55L310.524 154.522Z" fill="black"/>
<path d="M335.904 144.095L339.985 150.057L346.916 148.018L342.507 153.741L346.588 159.703L339.782 157.278L335.373 163.002L335.576 155.78L328.771 153.356L335.702 151.317L335.904 144.095Z" fill="black"/>
<path d="M363.767 139.739L366.166 146.554L373.388 146.378L367.648 150.765L370.047 157.58L364.101 153.477L358.361 157.864L360.426 150.941L354.48 146.837L361.702 146.662L363.767 139.739Z" fill="black"/>
<path d="M392.938 142.685L393.491 149.888L400.513 151.588L393.833 154.34L394.386 161.543L389.705 156.041L383.025 158.793L386.811 152.64L382.13 147.138L389.151 148.837L392.938 142.685Z" fill="black"/>
<path d="M420.612 155.338L417.49 161.853L422.721 166.836L415.56 165.879L412.437 172.394L411.134 165.288L403.973 164.332L410.329 160.896L409.026 153.79L414.257 158.773L420.612 155.338Z" fill="black"/>
<path d="M727.985 275.54C731.487 260.681 713.386 262.62 713.386 262.62C718.577 264.011 723.242 271.09 723.242 271.09C708.894 264.065 704.323 270.791 704.323 270.791L711.134 271.024C715.804 271.209 718.149 272.676 719.096 274.737C714.754 275.597 708.347 278.612 701.951 287.857C701.518 271.818 696.113 263.825 691.725 259.987C693.96 258.406 697.309 258.283 702.313 260.917L709.589 264.789C709.589 264.789 708.866 254.98 689.589 253.662C689.589 253.662 698.761 249.067 705.038 250.749C705.038 250.749 687.248 237.77 681.929 255.455C681.929 255.455 663.907 267.286 676.159 276.988C676.159 276.988 676.589 263.403 684.421 261.892C684.421 261.892 679.714 277.941 687.979 280.156C688.008 280.362 686.015 267.871 689.894 261.926C702.037 282.019 690.243 302.378 690.243 302.378L693.946 303.37L700.757 305.195L702.64 305.699C702.64 305.699 702.615 286.245 719.612 276.88C719.93 282.739 713.34 290.863 713.446 290.722C720.282 292.554 723.544 279.118 723.544 279.118C728.528 283.438 723.216 293.34 723.216 293.34C736.001 291.461 727.985 275.54 727.985 275.54Z" fill="black"/>
<mask id="mask1_554_1446" style="mask-type:alpha" maskUnits="userSpaceOnUse" x="-178" y="222" width="1124" height="238">
<rect x="-178" y="222" width="1124" height="238" fill="#D9D9D9"/>
</mask>
<g mask="url(#mask1_554_1446)">
<path d="M384 261C521.034 261 653.685 283.697 779.529 326.151C779.433 326.317 779.336 326.481 779.241 326.647C780.361 326.8 781.473 326.978 782.576 327.183C797.74 332.341 812.805 337.788 827.766 343.516C825.541 345.096 823.618 347.073 822.102 349.346C823.097 350.448 824.057 351.583 824.981 352.747C826.785 349.596 829.513 347.042 832.795 345.452C1424.86 574.967 1853.46 1246.42 1853.46 2039C1853.46 3020.96 1195.56 3817 384 3817C-427.563 3817 -1085.46 3020.96 -1085.46 2039C-1085.46 1057.04 -427.563 261 384 261ZM70.6973 418.068C31.839 418.069 0.303711 449.419 0.00292969 488.206L0 488.205V488.246H4.00391C4.28333 451.649 34.0348 422.069 70.6973 422.068C107.36 422.068 137.112 451.649 137.392 488.246H141.393C141.115 449.745 110.062 418.561 71.6113 418.074L70.6973 418.068ZM70.6982 444.964C46.6808 444.964 27.182 464.295 26.9033 488.246H30.9033C31.1818 466.504 48.8899 448.964 70.6982 448.964C92.5065 448.964 110.215 466.504 110.493 488.246H114.493C114.219 464.672 95.325 445.574 71.8291 444.979L70.6982 444.964ZM70.6973 466.48C58.5634 466.481 48.6942 476.179 48.418 488.246H52.4199C52.6952 478.388 60.7726 470.481 70.6973 470.48C80.6219 470.48 88.6993 478.388 88.9746 488.246H92.9766C92.7046 476.37 83.1416 466.788 71.2725 466.487L70.6973 466.48ZM212.093 418.068C173.221 418.069 141.678 449.44 141.398 488.246H145.399C145.679 451.649 175.43 422.069 212.093 422.068C248.755 422.069 278.508 451.65 278.787 488.246H282.788C282.511 449.745 251.458 418.561 213.007 418.074L212.093 418.068ZM212.094 444.964C188.076 444.964 168.578 464.295 168.299 488.246H172.299C172.577 466.504 190.285 448.964 212.094 448.964C233.902 448.964 251.61 466.504 251.889 488.246H255.889C255.614 464.672 236.72 445.574 213.225 444.979L212.094 444.964ZM212.094 466.48C199.96 466.481 190.091 476.179 189.814 488.246H193.816C194.092 478.388 202.169 470.481 212.094 470.48C222.018 470.481 230.096 478.388 230.371 488.246H234.373C234.101 476.37 224.538 466.788 212.669 466.487L212.094 466.48ZM490.697 418.068C457.564 418.069 429.754 440.862 422.093 471.624C414.502 441.145 387.133 418.489 354.402 418.074L353.488 418.068C314.617 418.069 283.073 449.44 282.794 488.246H286.795C287.074 451.649 316.826 422.069 353.488 422.068C389.132 422.068 418.241 450.028 420.089 485.211C420.04 486.204 420.011 487.203 420.003 488.206L420 488.205V488.246H424.184C424.176 487.231 424.145 486.221 424.096 485.217C425.94 450.031 455.052 422.069 490.697 422.068C527.36 422.068 557.112 451.649 557.392 488.246H561.393C561.115 449.745 530.062 418.561 491.611 418.074L490.697 418.068ZM353.488 444.964C329.471 444.964 309.972 464.295 309.693 488.246H313.693C313.972 466.504 331.68 448.964 353.488 448.964C375.297 448.964 393.005 466.504 393.283 488.246H397.283C397.009 464.672 378.115 445.574 354.619 444.979L353.488 444.964ZM353.488 466.48C341.354 466.481 331.485 476.179 331.209 488.246H335.211C335.486 478.388 343.564 470.481 353.488 470.48C363.413 470.48 371.49 478.388 371.766 488.246H375.768C375.496 476.37 365.933 466.788 354.063 466.487L353.488 466.48ZM490.698 444.964C466.681 444.964 447.182 464.295 446.903 488.246H450.903C451.182 466.504 468.89 448.964 490.698 448.964C512.506 448.964 530.215 466.504 530.493 488.246H534.493C534.219 464.672 515.325 445.574 491.829 444.979L490.698 444.964ZM490.697 466.48C478.563 466.481 468.694 476.179 468.418 488.246H472.42C472.695 478.388 480.773 470.481 490.697 470.48C500.622 470.48 508.699 478.388 508.975 488.246H512.977C512.705 476.37 503.142 466.788 491.272 466.487L490.697 466.48ZM632.093 418.068C593.221 418.069 561.678 449.44 561.398 488.246H565.399C565.679 451.649 595.43 422.069 632.093 422.068C668.755 422.069 698.508 451.65 698.787 488.246H702.788C702.511 449.745 671.458 418.561 633.007 418.074L632.093 418.068ZM632.094 444.964C608.076 444.964 588.578 464.295 588.299 488.246H592.299C592.577 466.504 610.285 448.964 632.094 448.964C653.902 448.964 671.61 466.504 671.889 488.246H675.889C675.614 464.672 656.72 445.574 633.225 444.979L632.094 444.964ZM632.094 466.48C619.96 466.481 610.091 476.179 609.814 488.246H613.816C614.092 478.388 622.169 470.481 632.094 470.48C642.018 470.481 650.096 478.388 650.371 488.246H654.373C654.101 476.37 644.538 466.788 632.669 466.487L632.094 466.48ZM773.488 418.068C734.617 418.069 703.073 449.44 702.794 488.246H706.795C707.074 451.649 736.826 422.069 773.488 422.068C810.151 422.068 839.903 451.649 840.183 488.246H844.184C843.906 449.745 812.854 418.561 774.402 418.074L773.488 418.068ZM773.488 444.964C749.471 444.964 729.972 464.295 729.693 488.246H733.693C733.972 466.504 751.68 448.964 773.488 448.964C795.297 448.964 813.005 466.504 813.283 488.246H817.283C817.009 464.672 798.115 445.574 774.619 444.979L773.488 444.964ZM773.488 466.48C761.354 466.481 751.485 476.179 751.209 488.246H755.211C755.486 478.388 763.564 470.481 773.488 470.48C783.413 470.48 791.49 478.388 791.766 488.246H795.768C795.496 476.37 785.933 466.788 774.063 466.487L773.488 466.48ZM283.498 426.37C275.591 426.37 268.646 430.489 264.69 436.697C265.703 437.791 266.68 438.917 267.622 440.072C270.675 434.438 276.64 430.612 283.498 430.612C289.994 430.613 295.689 434.046 298.866 439.197C299.791 438.055 300.752 436.941 301.745 435.859C297.816 430.267 291.382 426.563 284.073 426.378L283.498 426.37ZM703.498 426.37C695.591 426.37 688.646 430.489 684.69 436.697C685.703 437.791 686.68 438.917 687.622 440.072C690.675 434.438 696.64 430.612 703.498 430.612C709.994 430.613 715.689 434.046 718.866 439.197C719.791 438.055 720.752 436.941 721.745 435.859C717.816 430.267 711.382 426.563 704.073 426.378L703.498 426.37ZM142.104 426.37C134.557 426.37 127.887 430.121 123.855 435.86C124.849 436.942 125.808 438.056 126.733 439.198C129.91 434.046 135.606 430.612 142.104 430.612C148.96 430.613 154.923 434.437 157.977 440.069C158.919 438.914 159.897 437.789 160.909 436.695C157.049 430.639 150.345 426.572 142.678 426.378L142.104 426.37ZM562.104 426.37C554.557 426.37 547.887 430.121 543.855 435.86C544.849 436.942 545.808 438.056 546.733 439.198C549.91 434.046 555.606 430.612 562.104 430.612C568.96 430.613 574.923 434.437 577.977 440.069C578.919 438.914 579.897 437.789 580.909 436.695C577.049 430.639 570.345 426.572 562.678 426.378L562.104 426.37ZM420 426.382V426.91C414.327 428.182 409.471 431.617 406.344 436.304C407.339 437.406 408.299 438.541 409.224 439.705C412.005 434.846 416.982 431.406 422.803 430.734C428.62 431.408 433.595 434.847 436.376 439.704C437.301 438.54 438.262 437.405 439.257 436.303C435.873 431.231 430.464 427.626 424.187 426.642V426.381C423.716 426.396 423.25 426.424 422.787 426.468C422.29 426.422 421.788 426.391 421.282 426.378L420.707 426.37C420.47 426.37 420.235 426.374 420 426.382ZM844.187 426.381C836.741 426.613 830.217 430.499 826.344 436.304C827.339 437.406 828.299 438.541 829.224 439.705C832.223 434.465 837.776 430.874 844.187 430.627V426.381ZM0 426.382V430.626C0.234497 430.617 0.470215 430.612 0.707031 430.612C7.41406 430.613 13.2661 434.273 16.376 439.704C17.3009 438.54 18.2617 437.405 19.2568 436.303C15.3607 430.464 8.78223 426.568 1.28223 426.378L0.707031 426.37C0.470459 426.37 0.234741 426.374 0 426.382ZM142.103 404.854C127.77 404.854 115.044 411.738 107.053 422.381C108.285 423.092 109.495 423.84 110.68 424.622C117.91 415.184 129.295 409.096 142.103 409.096C155.299 409.096 166.983 415.559 174.17 425.49C175.355 424.716 176.566 423.976 177.799 423.271C170.062 412.411 157.496 405.23 143.232 404.868L142.103 404.854ZM283.497 404.854C268.769 404.854 255.739 412.124 247.798 423.271C249.032 423.975 250.243 424.715 251.429 425.49C258.616 415.559 270.301 409.096 283.497 409.096C296.305 409.096 307.689 415.184 314.919 424.623C316.102 423.841 317.311 423.094 318.543 422.383C310.763 412.021 298.497 405.219 284.627 404.868L283.497 404.854ZM562.103 404.854C547.77 404.854 535.044 411.738 527.053 422.381C528.285 423.092 529.495 423.84 530.68 424.622C537.91 415.184 549.295 409.096 562.103 409.096C575.299 409.096 586.983 415.559 594.17 425.49C595.355 424.716 596.566 423.976 597.799 423.271C590.062 412.411 577.496 405.23 563.232 404.868L562.103 404.854ZM703.497 404.854C688.769 404.854 675.739 412.124 667.798 423.271C669.032 423.975 670.243 424.715 671.429 425.49C678.616 415.559 690.301 409.096 703.497 409.096C716.305 409.096 727.689 415.184 734.919 424.623C736.102 423.841 737.311 423.094 738.543 422.383C730.763 412.021 718.497 405.219 704.627 404.868L703.497 404.854ZM0 404.859V409.103C0.235229 409.098 0.470825 409.096 0.707031 409.096C13.6559 409.096 25.1506 415.319 32.3672 424.936C33.5431 424.145 34.7443 423.389 35.9688 422.669C28.2006 412.146 15.8353 405.223 1.83691 404.868L0.707031 404.854C0.470947 404.854 0.235229 404.856 0 404.859ZM420 404.859V405.124C407.562 406.507 396.696 413.099 389.632 422.669C390.856 423.389 392.056 424.145 393.231 424.936C400.057 415.839 410.712 409.781 422.803 409.151C434.891 409.783 445.542 415.841 452.367 424.936C453.543 424.145 454.744 423.389 455.969 422.669C448.638 412.738 437.214 406.014 424.187 404.99V404.858C423.717 404.866 423.248 404.881 422.782 404.903C422.468 404.889 422.153 404.876 421.837 404.868L420.707 404.854C420.471 404.854 420.235 404.856 420 404.859ZM844.187 404.858C830.015 405.083 817.479 412.04 809.632 422.669C810.856 423.389 812.056 424.145 813.231 424.936C820.317 415.494 831.526 409.325 844.187 409.103V404.858ZM142.103 377.958C115.847 377.958 92.9338 392.27 80.7402 413.519C82.256 413.711 83.757 413.952 85.2412 414.238C96.8915 395.032 117.999 382.199 142.103 382.199C166.627 382.2 188.048 395.485 199.563 415.251C201.041 414.971 202.535 414.737 204.043 414.551C192.143 392.985 169.31 378.297 143.016 377.964L142.103 377.958ZM283.498 377.958C256.82 377.958 233.594 392.735 221.557 414.551C223.065 414.737 224.558 414.971 226.035 415.251C237.551 395.485 258.973 382.199 283.498 382.199C307.602 382.199 328.707 395.033 340.357 414.238C341.842 413.952 343.343 413.712 344.858 413.52C332.807 392.518 310.285 378.292 284.412 377.964L283.498 377.958ZM562.103 377.958C535.847 377.958 512.934 392.27 500.74 413.519C502.256 413.711 503.757 413.952 505.241 414.238C516.891 395.032 537.999 382.199 562.103 382.199C586.627 382.2 608.048 395.485 619.563 415.251C621.041 414.971 622.535 414.737 624.043 414.551C612.143 392.985 589.31 378.297 563.016 377.964L562.103 377.958ZM703.498 377.958C676.82 377.958 653.594 392.735 641.557 414.551C643.065 414.737 644.558 414.971 646.035 415.251C657.551 395.485 678.973 382.199 703.498 382.199C727.602 382.199 748.707 395.033 760.357 414.238C761.842 413.952 763.343 413.712 764.858 413.52C752.807 392.518 730.285 378.292 704.412 377.964L703.498 377.958ZM0 377.964V382.205C0.235352 382.203 0.471069 382.199 0.707031 382.199C24.8623 382.199 46.0073 395.088 57.6416 414.362C59.1171 414.063 60.61 413.811 62.1172 413.605C50.0778 392.557 27.5291 378.292 1.62109 377.964L0.707031 377.958C0.471069 377.958 0.235352 377.962 0 377.964ZM420 377.964V378.129C395.774 379.785 374.901 393.642 363.482 413.605C364.99 413.811 366.483 414.063 367.958 414.362C379.262 395.635 399.546 382.939 422.845 382.233C446.106 382.969 466.352 395.659 477.642 414.362C479.117 414.063 480.61 413.811 482.117 413.605C470.477 393.255 449.013 379.246 424.187 378.043V377.964C423.743 377.968 423.299 377.977 422.857 377.989C422.446 377.977 422.034 377.969 421.621 377.964L420.707 377.958C420.471 377.958 420.235 377.962 420 377.964ZM844.187 377.964C818.192 378.219 795.554 392.501 783.482 413.605C784.99 413.811 786.483 414.063 787.958 414.362C799.479 395.276 820.326 382.454 844.187 382.205V377.964ZM350.662 381.831C342.923 381.831 336.107 385.776 332.111 391.765C333.106 392.867 334.067 394.001 334.991 395.165C338.101 389.733 343.954 386.073 350.662 386.073C357.625 386.074 363.667 390.018 366.675 395.794C367.618 394.626 368.597 393.49 369.611 392.385C365.776 386.202 358.999 382.035 351.236 381.838L350.662 381.831ZM770.662 381.831C762.923 381.831 756.107 385.776 752.111 391.765C753.106 392.867 754.067 394.001 754.991 395.165C758.101 389.733 763.954 386.073 770.662 386.073C777.625 386.074 783.667 390.018 786.675 395.794C787.618 394.626 788.597 393.49 789.611 392.385C785.776 386.202 778.999 382.035 771.236 381.838L770.662 381.831ZM209.266 381.831C201.359 381.831 194.414 385.95 190.458 392.158C191.47 393.252 192.448 394.377 193.39 395.533C196.442 389.899 202.408 386.073 209.266 386.073C215.762 386.073 221.457 389.507 224.634 394.658C225.559 393.516 226.519 392.403 227.513 391.32C223.584 385.728 217.15 382.023 209.841 381.838L209.266 381.831ZM629.266 381.831C621.359 381.831 614.414 385.95 610.458 392.158C611.47 393.252 612.448 394.377 613.39 395.533C616.442 389.899 622.408 386.073 629.266 386.073C635.762 386.073 641.457 389.507 644.634 394.658C645.559 393.516 646.519 392.403 647.513 391.32C643.584 385.728 637.15 382.023 629.841 381.838L629.266 381.831ZM67.8711 381.831C60.3248 381.831 53.6547 385.582 49.623 391.321C50.6162 392.403 51.576 393.517 52.501 394.659C55.678 389.507 61.3739 386.073 67.8711 386.073C74.7274 386.074 80.6909 389.898 83.7441 395.53C84.6863 394.375 85.6647 393.25 86.6768 392.156C82.8169 386.1 76.1123 382.032 68.4453 381.838L67.8711 381.831ZM487.871 381.831C480.325 381.831 473.655 385.582 469.623 391.321C470.616 392.403 471.576 393.517 472.501 394.659C475.678 389.507 481.374 386.073 487.871 386.073C494.727 386.074 500.691 389.898 503.744 395.53C504.686 394.375 505.665 393.25 506.677 392.156C502.817 386.1 496.112 382.032 488.445 381.838L487.871 381.831ZM350.661 360.314C336.2 360.315 323.376 367.324 315.399 378.13C316.623 378.85 317.824 379.605 318.999 380.396C326.216 370.778 337.712 364.556 350.661 364.556C363.927 364.556 375.667 371.087 382.844 381.108C384.025 380.329 385.231 379.585 386.461 378.876C378.733 367.935 366.118 360.691 351.791 360.328L350.661 360.314ZM770.661 360.314C756.2 360.315 743.376 367.324 735.399 378.13C736.623 378.85 737.824 379.605 738.999 380.396C746.216 370.778 757.712 364.556 770.661 364.556C783.927 364.556 795.667 371.087 802.844 381.108C804.025 380.329 805.231 379.585 806.461 378.876C798.733 367.935 786.118 360.691 771.791 360.328L770.661 360.314ZM67.8701 360.314C53.537 360.315 40.8114 367.199 32.8203 377.842C34.053 378.553 35.2629 379.301 36.4473 380.083C43.6774 370.644 55.0624 364.556 67.8701 364.556C81.066 364.556 92.7507 371.019 99.9375 380.95C101.123 380.176 102.333 379.436 103.566 378.732C95.8297 367.872 83.2634 360.689 69 360.328L67.8701 360.314ZM209.265 360.314C194.536 360.315 181.506 367.585 173.565 378.731C174.799 379.436 176.01 380.175 177.196 380.95C184.383 371.019 196.069 364.556 209.265 364.556C222.073 364.556 233.457 370.645 240.687 380.084C241.87 379.302 243.078 378.554 244.311 377.843C236.53 367.481 224.265 360.679 210.395 360.328L209.265 360.314ZM487.87 360.314C473.537 360.315 460.811 367.199 452.82 377.842C454.053 378.553 455.263 379.301 456.447 380.083C463.677 370.644 475.062 364.556 487.87 364.556C501.066 364.556 512.751 371.019 519.938 380.95C521.123 380.176 522.333 379.436 523.566 378.732C515.83 367.872 503.263 360.689 489 360.328L487.87 360.314ZM629.265 360.314C614.536 360.315 601.506 367.585 593.565 378.731C594.799 379.436 596.01 380.175 597.196 380.95C604.383 371.019 616.069 364.556 629.265 364.556C642.073 364.556 653.457 370.645 660.687 380.084C661.87 379.302 663.078 378.554 664.311 377.843C656.53 367.481 644.265 360.679 630.395 360.328L629.265 360.314ZM350.661 333.418C324.37 333.418 301.431 347.77 289.25 369.066C290.757 369.272 292.25 369.524 293.726 369.823C305.36 350.548 326.505 337.66 350.661 337.66C375.211 337.66 396.65 350.973 408.157 370.772C409.631 370.486 411.12 370.245 412.625 370.052C400.732 348.464 377.885 333.758 351.574 333.425L350.661 333.418ZM770.661 333.418C744.37 333.418 721.431 347.77 709.25 369.066C710.757 369.272 712.25 369.524 713.726 369.823C725.36 350.548 746.505 337.66 770.661 337.66C795.211 337.66 816.65 350.973 828.157 370.772C829.631 370.486 831.12 370.245 832.625 370.052C820.732 348.464 797.885 333.758 771.574 333.425L770.661 333.418ZM67.8701 333.418C41.6146 333.418 18.7014 347.731 6.50781 368.979C8.02356 369.172 9.52454 369.413 11.0088 369.699C22.6591 350.493 43.7662 337.66 67.8701 337.66C92.3947 337.66 113.816 350.946 125.331 370.712C126.808 370.432 128.302 370.198 129.811 370.012C117.911 348.446 95.0773 333.758 68.7832 333.425L67.8701 333.418ZM209.266 333.418C182.588 333.418 159.361 348.196 147.324 370.012C148.832 370.198 150.326 370.432 151.803 370.712C163.318 350.946 184.741 337.66 209.266 337.66C233.369 337.66 254.475 350.494 266.125 369.699C267.609 369.413 269.11 369.173 270.626 368.98C258.574 347.979 236.052 333.753 210.18 333.425L209.266 333.418ZM487.87 333.418C461.615 333.418 438.701 347.731 426.508 368.979C428.024 369.172 429.525 369.413 431.009 369.699C442.659 350.493 463.766 337.66 487.87 337.66C512.395 337.66 533.816 350.946 545.331 370.712C546.808 370.432 548.302 370.198 549.811 370.012C537.911 348.446 515.077 333.758 488.783 333.425L487.87 333.418ZM629.266 333.418C602.588 333.418 579.361 348.196 567.324 370.012C568.832 370.198 570.326 370.432 571.803 370.712C583.318 350.946 604.741 337.66 629.266 337.66C653.369 337.66 674.475 350.494 686.125 369.699C687.609 369.413 689.11 369.173 690.626 368.98C678.574 347.979 656.052 333.753 630.18 333.425L629.266 333.418ZM279.257 339.412C271.35 339.412 264.405 343.531 260.449 349.739C261.461 350.833 262.439 351.958 263.381 353.114C266.433 347.48 272.399 343.654 279.257 343.654C285.753 343.655 291.447 347.088 294.624 352.239C295.549 351.097 296.51 349.984 297.503 348.901C293.574 343.309 287.14 339.605 279.831 339.42L279.257 339.412ZM699.257 339.412C691.35 339.412 684.405 343.531 680.449 349.739C681.461 350.833 682.439 351.958 683.381 353.114C686.433 347.48 692.399 343.654 699.257 343.654C705.753 343.655 711.447 347.088 714.624 352.239C715.549 351.097 716.51 349.984 717.503 348.901C713.574 343.309 707.14 339.605 699.831 339.42L699.257 339.412ZM137.861 339.412C130.315 339.412 123.646 343.164 119.614 348.902C120.607 349.984 121.567 351.098 122.492 352.24C125.669 347.088 131.364 343.654 137.861 343.654C144.718 343.655 150.681 347.479 153.734 353.111C154.677 351.956 155.655 350.831 156.667 349.737C152.807 343.681 146.103 339.614 138.437 339.42L137.861 339.412ZM557.861 339.412C550.315 339.412 543.646 343.164 539.614 348.902C540.607 349.984 541.567 351.098 542.492 352.24C545.669 347.088 551.364 343.654 557.861 343.654C564.718 343.655 570.681 347.479 573.734 353.111C574.677 351.956 575.655 350.831 576.667 349.737C572.807 343.681 566.103 339.614 558.437 339.42L557.861 339.412ZM420.652 339.412C412.914 339.412 406.097 343.357 402.102 349.346C403.097 350.448 404.057 351.583 404.981 352.747C407.99 347.492 413.566 343.895 420 343.666V344.002C425.194 345.034 429.586 348.294 432.135 352.746C433.06 351.582 434.021 350.447 435.016 349.345C432.422 345.458 428.639 342.434 424.187 340.79V339.692C423.219 339.538 422.232 339.445 421.228 339.42L420.652 339.412ZM137.86 317.896C123.527 317.896 110.803 324.78 102.812 335.423C104.044 336.135 105.254 336.882 106.438 337.664C113.669 328.226 125.053 322.138 137.86 322.138C151.057 322.138 162.742 328.601 169.929 338.532C171.114 337.758 172.324 337.017 173.557 336.313C165.82 325.453 153.254 318.271 138.99 317.91L137.86 317.896ZM279.256 317.896C264.527 317.896 251.496 325.166 243.556 336.312C244.789 337.017 246.001 337.757 247.187 338.532C254.374 328.601 266.06 322.138 279.256 322.138C292.064 322.138 303.447 328.226 310.677 337.665C311.861 336.883 313.07 336.135 314.302 335.424C306.522 325.062 294.256 318.262 280.386 317.91L279.256 317.896ZM557.86 317.896C543.527 317.896 530.803 324.78 522.812 335.423C524.044 336.135 525.254 336.882 526.438 337.664C533.669 328.226 545.053 322.138 557.86 322.138C571.057 322.138 582.742 328.601 589.929 338.532C591.114 337.758 592.324 337.017 593.557 336.313C585.82 325.453 573.254 318.271 558.99 317.91L557.86 317.896ZM420.651 317.896C406.19 317.896 393.367 324.905 385.391 335.711C386.615 336.431 387.815 337.187 388.99 337.977C396.086 328.521 407.318 322.349 420 322.144V322.294C431.493 323.312 441.572 329.245 448.125 337.977C449.301 337.186 450.503 336.431 451.728 335.711C445.204 326.874 435.439 320.575 424.187 318.574V318.037C423.391 317.974 422.589 317.931 421.781 317.91L420.651 317.896ZM279.257 291C252.579 291 229.352 305.777 217.314 327.593C218.823 327.779 220.317 328.013 221.794 328.293C233.31 308.527 254.732 295.241 279.257 295.241C303.36 295.241 324.466 308.075 336.116 327.28C337.6 326.994 339.101 326.754 340.616 326.562C328.564 305.56 306.043 291.334 280.17 291.006L279.257 291ZM557.86 291C531.605 291 508.693 305.312 496.499 326.561C498.015 326.753 499.515 326.994 500.999 327.28C512.649 308.074 533.757 295.241 557.86 295.241C582.385 295.241 603.806 308.527 615.321 328.293C616.799 328.013 618.293 327.779 619.802 327.593C607.902 306.027 585.068 291.339 558.774 291.006L557.86 291ZM420.651 291C394.36 291 371.422 305.352 359.241 326.647C360.748 326.853 362.24 327.105 363.716 327.404C375.246 308.303 396.116 295.476 420 295.246V295.334C442.674 296.522 462.337 309.076 473.4 327.404C474.876 327.105 476.368 326.853 477.875 326.647C466.903 307.465 447.203 293.919 424.187 291.419V291.088C423.317 291.045 422.443 291.017 421.565 291.006L420.651 291Z" fill="black"/>
</g>
</g>
</svg>
