<svg width="181" height="155" viewBox="0 0 181 155" fill="none" xmlns="http://www.w3.org/2000/svg">
<path d="M174.604 38.3823L135.687 5.55714C134.13 4.24414 132.063 3.5365 129.871 3.72264L101.971 6.09159C97.5871 6.46385 94.3046 10.3555 94.6769 14.7397L97.0458 42.6394C97.232 44.8315 98.278 46.7498 99.8779 48.0993L138.795 80.9244C140.351 82.2375 142.419 82.9451 144.611 82.759C146.803 82.5728 148.721 81.5268 150.031 79.9302L175.561 49.6617C176.914 48.1016 177.622 46.0343 177.436 43.8422C177.25 41.6501 176.16 39.6953 174.604 38.3823ZM109.642 25.5122C106.334 25.7931 103.437 23.3495 103.156 20.0414C102.875 16.7333 105.319 13.8362 108.627 13.5553C111.935 13.2744 114.832 15.718 115.113 19.0261C115.394 22.3342 112.95 25.2314 109.642 25.5122ZM159.352 54.4904L143.778 72.9542L125.314 57.3805C123.365 55.6994 122.039 53.3231 121.806 50.573C121.339 45.0728 125.424 40.2298 130.924 39.7628C133.674 39.5293 136.28 40.432 138.229 42.1131L141.382 44.7358L144.045 41.5792C145.686 39.6334 148.102 38.3042 150.852 38.0707C156.352 37.6036 161.195 41.6885 161.662 47.1888C161.896 49.9389 160.993 52.5446 159.352 54.4904Z" fill="#00EAFF"/>
<path d="M138.111 92.2223V155H106.722V117.333H81.6111V155H50.2222V92.2223L94.1667 60.8334L138.111 92.2223Z" fill="#990058"/>
<path d="M81.6111 42V54.3672L37.6667 85.7561V92.2222H25.1111V104.778H37.6667V117.333H25.1111V129.889H37.6667V155H-1.43051e-06V42H81.6111ZM25.1111 79.6667H37.6667V67.1111H25.1111V79.6667Z" fill="#990058"/>
<path d="M18.731 2.22675L22.0398 9.4484L29.2352 12.731L22.0398 16.0398L18.731 23.2352L15.4484 16.0398L8.22677 12.731L15.4484 9.4484M44.9916 10.1049L51.5567 24.5482L66 31.1134L51.5567 37.6785L44.9916 52.1218L38.4264 37.6785L23.9831 31.1134L38.4264 24.5482M18.731 38.9915L22.0398 46.1869L29.2352 49.4958L22.0398 52.7783L18.731 60L15.4484 52.7783L8.22677 49.4958L15.4484 46.1869" fill="#FFF8CC"/>
</svg>
