<svg width="162" height="146" viewBox="0 0 162 146" fill="none" xmlns="http://www.w3.org/2000/svg">
<path d="M81 32.4444V0H0V146H162V32.4444H81ZM32.4 97.3333H16.2V81.1111H32.4V97.3333ZM32.4 64.8889H16.2V48.6667H32.4V64.8889ZM32.4 32.4444H16.2V16.2222H32.4V32.4444ZM64.8 97.3333H48.6V81.1111H64.8V97.3333ZM64.8 64.8889H48.6V48.6667H64.8V64.8889ZM64.8 32.4444H48.6V16.2222H64.8V32.4444ZM145.8 129.778H81V113.556V97.3333V81.1111V64.8889V48.6667H145.8V129.778Z" fill="#990058"/>
<path d="M113.509 83.2075C117.673 83.2075 121.666 84.8614 124.61 87.8054C127.554 90.7494 129.208 94.7422 129.208 98.9056C129.208 103.069 127.554 107.062 124.61 110.006C121.666 112.95 117.673 114.604 113.509 114.604C109.346 114.604 105.353 112.95 102.409 110.006C99.4652 107.062 97.8113 103.069 97.8113 98.9056C97.8113 94.7422 99.4652 90.7494 102.409 87.8054C105.353 84.8614 109.346 83.2075 113.509 83.2075ZM113.509 122.453C130.856 122.453 144.906 129.478 144.906 138.151V146H82.1132V138.151C82.1132 129.478 96.163 122.453 113.509 122.453Z" fill="#FFF8CC"/>
<path d="M62.283 141.707H18.8113V146H62.283V141.707ZM23.1585 133.12C23.1585 134.193 23.5932 135.266 24.4626 136.125C25.3321 136.984 26.4189 137.413 27.5056 137.413V113.799C26.4189 113.799 25.3321 114.228 24.4626 115.087C23.5932 115.946 23.1585 117.019 23.1585 118.092V133.12ZM43.8075 113.799H37.2868C37.2868 112.94 37.5041 112.081 38.1562 111.437C38.8083 110.793 39.4604 110.579 40.5472 110.579C41.4166 110.579 42.286 110.793 42.9381 111.437C43.3728 112.081 43.8075 112.94 43.8075 113.799ZM29.6792 113.799V137.413H51.4151V113.799H47.0679C47.0679 112.081 46.4158 110.579 45.1117 109.291C43.8075 108.003 42.286 107.359 40.5472 107.359C38.8083 107.359 37.2868 108.003 35.9826 109.291C34.6785 110.579 34.0264 112.081 34.0264 113.799H29.6792ZM53.5887 137.413C54.6755 137.413 55.7623 136.984 56.6317 136.125C57.5011 135.266 57.9358 134.193 57.9358 133.12V118.092C57.9358 117.019 57.5011 115.946 56.6317 115.087C55.7623 114.228 54.6755 113.799 53.5887 113.799V137.413Z" fill="#00EAFF"/>
</svg>
