<svg width="85" height="110" viewBox="0 0 85 110" fill="none" xmlns="http://www.w3.org/2000/svg">
<path d="M74.7066 25.4606H70.0375V16.0674H60.6991V25.4606H23.3458V16.0674H14.0075V25.4606H9.33833C4.15556 25.4606 0 29.6876 0 34.8539V100.607C0 105.82 4.20225 110 9.33833 110H74.7066C79.8894 110 84.045 105.82 84.045 100.607V34.8539C84.045 29.6876 79.8894 25.4606 74.7066 25.4606ZM74.7066 100.607H9.33833V53.6404H74.7066V100.607ZM74.7066 44.2472H9.33833V34.8539H74.7066V44.2472Z" fill="#FFD9EF"/>
<path d="M58.9084 80.5312L46.8276 92.4375C46.6373 92.625 46.4233 92.7656 46.1855 92.8594C45.9477 92.9531 45.7019 93 45.4483 93H43.8787C43.625 93 43.4031 92.9062 43.2128 92.7188C43.0226 92.5312 42.9275 92.3125 42.9275 92.0625V90.5156C42.9275 90.2656 42.975 90.0234 43.0702 89.7891C43.1653 89.5547 43.308 89.3438 43.4982 89.1562L55.5791 77.25L58.9084 80.5312ZM22 85.5V66.75C22 65.7188 22.3726 64.8359 23.1177 64.1016C23.8629 63.3672 24.7586 63 25.805 63H56.2449C57.2913 63 58.1871 63.3672 58.9322 64.1016C59.6774 64.8359 60.0499 65.7188 60.0499 66.75V68.625H56.2449L46.7325 78H31.5125C30.9734 78 30.5216 78.1797 30.157 78.5391C29.7923 78.8984 29.61 79.3438 29.61 79.875C29.61 80.4062 29.7923 80.8516 30.157 81.2109C30.5216 81.5703 30.9734 81.75 31.5125 81.75H42.9275L35.3175 89.25H25.805C24.7586 89.25 23.8629 88.8828 23.1177 88.1484C22.3726 87.4141 22 86.5312 22 85.5ZM31.5125 74.25H39.1225C39.6615 74.25 40.1134 74.0703 40.478 73.7109C40.8426 73.3516 41.025 72.9062 41.025 72.375C41.025 71.8438 40.8426 71.3984 40.478 71.0391C40.1134 70.6797 39.6615 70.5 39.1225 70.5H31.5125C30.9734 70.5 30.5216 70.6797 30.157 71.0391C29.7923 71.3984 29.61 71.8438 29.61 72.375C29.61 72.9062 29.7923 73.3516 30.157 73.7109C30.5216 74.0703 30.9734 74.25 31.5125 74.25ZM60.0499 79.4062L56.7206 76.125L58.4328 74.4375C58.5914 74.2813 58.7658 74.2031 58.956 74.2031C59.1463 74.2031 59.3206 74.2813 59.4792 74.4375L61.7622 76.6875C61.9207 76.8437 62 77.0156 62 77.2031C62 77.3906 61.9207 77.5625 61.7622 77.7188L60.0499 79.4062Z" fill="#FF0093"/>
<path d="M42.0225 0C33.1854 0 25.9551 7.23034 25.9551 16.0674C25.9551 24.9045 33.1854 32.1348 42.0225 32.1348C50.8596 32.1348 58.0899 24.9045 58.0899 16.0674C58.0899 7.23034 50.8596 0 42.0225 0ZM45.236 24.1011L40.4158 15.7461V8.03371H42.8259V15.1034L47.3247 22.9764L45.236 24.1011Z" fill="#00EAFF"/>
</svg>
